<svg width="512" height="512" viewBox="0 0 512 512" fill="none" xmlns="http://www.w3.org/2000/svg">
<path d="M247.1 1.10008C228.8 4.70008 213.7 20.8001 211 39.5001C210.4 43.6001 210 79.2001 210 125.6V204.7L207.4 207.4L204.7 210H125.6C79.1999 210 43.5999 210.4 39.4999 211C14.6999 214.5 -3.20007 238.5 0.799932 262.7C4.09993 282.7 19.6999 298.1 39.4999 301C43.6999 301.6 77.8999 302 125.6 302H204.7L207.4 304.6L210 307.3V386.4C210 432.8 210.4 468.4 211 472.5C214.5 497.2 238.5 515.2 262.6 511.2C282.7 507.9 298.2 492.2 301 472.5C301.6 468.4 302 432.8 302 386.4V307.3L304.6 304.6L307.3 302H386.4C434.1 302 468.3 301.6 472.5 301C497.4 297.4 515.2 273.6 511.2 249.3C507.9 229.3 492.3 213.9 472.5 211C468.3 210.4 434.1 210 386.4 210H307.3L304.6 207.4L302 204.7V125.6C302 77.9001 301.6 43.7001 301 39.5001C297.2 13.7001 272.5 -3.89992 247.1 1.10008Z" fill="white"/>
</svg>
