<svg width="30" height="30" viewBox="0 0 30 30" fill="none" xmlns="http://www.w3.org/2000/svg">
<g clip-path="url(#clip0_5_306)">
<path d="M0.597569 0.123047C0.445225 0.199219 0.275303 0.351562 0.187412 0.486328L0.0292094 0.726562L0.0116312 4.1543C-8.75089e-05 6.43359 0.0116312 7.6582 0.0526468 7.79883C0.140537 8.08594 0.316319 8.30273 0.591709 8.4375C0.808506 8.54883 0.949131 8.55469 4.27725 8.55469C7.08389 8.55469 7.7753 8.53711 7.92764 8.47266C8.15616 8.37891 8.40811 8.11523 8.49014 7.89258C8.53116 7.78125 8.5546 6.56836 8.5546 4.27148C8.5546 0.996094 8.54874 0.802734 8.44327 0.597656C8.3085 0.328125 8.17374 0.205078 7.89249 0.0878906C7.71085 0.0117188 7.20694 0 4.26554 0C0.890537 0 0.843662 0 0.597569 0.123047ZM6.44522 4.30664V6.44531H4.30655H2.16788V4.30664V2.16797H4.30655H6.44522V4.30664Z" fill="white"/>
<path d="M11.3378 0.111328C11.0566 0.240234 10.9336 0.369141 10.8105 0.662109C10.7343 0.84375 10.7226 1.35352 10.7226 4.31836C10.7226 8.18555 10.6992 7.97461 11.1562 8.34961L11.3789 8.52539H15H18.621L18.8437 8.34961C19.3007 7.97461 19.2773 8.18555 19.2773 4.31836C19.2773 1.35352 19.2656 0.84375 19.1894 0.662109C19.0664 0.369141 18.9433 0.240234 18.6621 0.111328C18.4453 0.0117188 18.1992 0 15 0C11.8007 0 11.5546 0.0117188 11.3378 0.111328ZM17.1562 4.28906L17.1386 6.41602H15H12.8613L12.8437 4.28906L12.832 2.16797H15H17.1679L17.1562 4.28906Z" fill="white"/>
<path d="M22.0898 0.09375C21.8262 0.210938 21.6914 0.333984 21.5566 0.597656C21.4512 0.802734 21.4453 0.996094 21.4453 4.27148C21.4453 6.56836 21.4687 7.78125 21.5098 7.89258C21.5918 8.11523 21.8437 8.37891 22.0723 8.47266C22.2246 8.53711 22.916 8.55469 25.7227 8.55469C29.0508 8.55469 29.1914 8.54883 29.4082 8.4375C29.6836 8.30273 29.8594 8.08594 29.9473 7.79883C29.9883 7.6582 30 6.43359 29.9883 4.1543L29.9707 0.726562L29.8125 0.486328C29.7187 0.345703 29.5547 0.199219 29.4023 0.123047C29.1445 0 29.0918 0 25.7168 0C22.8047 0.00585938 22.2656 0.0175781 22.0898 0.09375ZM27.832 4.30664V6.44531H25.6934H23.5547V4.30664V2.16797H25.6934H27.832V4.30664Z" fill="white"/>
<path d="M0.615234 10.834C0.333984 10.9629 0.210938 11.0918 0.0878906 11.3848C0.0117188 11.5664 0 12.0703 0 15.0117C0 18.1992 0.0117188 18.4453 0.111328 18.6621C0.240234 18.9433 0.369141 19.0664 0.662109 19.1894C0.84375 19.2656 1.35352 19.2773 4.31836 19.2773C8.18555 19.2773 7.97461 19.3008 8.34961 18.8437L8.52539 18.6211V15V11.3789L8.34961 11.1562C7.97461 10.6992 8.18555 10.7226 4.30664 10.7226C1.07812 10.7226 0.832031 10.7344 0.615234 10.834ZM6.41602 15V17.1387L4.29492 17.1562L2.16797 17.168V15V12.832L4.29492 12.8437L6.41602 12.8613V15Z" fill="white"/>
<path d="M11.3379 10.834C11.0566 10.9629 10.9336 11.0918 10.8105 11.3848C10.7344 11.5664 10.7227 12.0703 10.7227 15.0117C10.7227 18.1992 10.7344 18.4453 10.834 18.6621C10.9629 18.9434 11.0918 19.0664 11.3848 19.1895C11.5664 19.2656 12.0703 19.2773 15.0117 19.2773C18.1992 19.2773 18.4453 19.2656 18.6621 19.166C18.9434 19.0371 19.0664 18.9082 19.1895 18.6152C19.3242 18.293 19.3242 11.707 19.1895 11.3848C19.0664 11.0918 18.9434 10.9629 18.6621 10.834C18.4453 10.7344 18.1992 10.7227 15 10.7227C11.8008 10.7227 11.5547 10.7344 11.3379 10.834ZM17.1387 15V17.1387H15H12.8613L12.8438 15.0586C12.8379 13.916 12.8438 12.9434 12.8613 12.9023C12.8789 12.8438 13.3418 12.832 15.0117 12.8438L17.1387 12.8613V15Z" fill="white"/>
<path d="M22.0313 10.834C21.9199 10.8926 21.75 11.0391 21.6504 11.1563L21.4746 11.3789V15V18.6211L21.6504 18.8438C22.0254 19.3008 21.8145 19.2774 25.6934 19.2774C28.9219 19.2774 29.168 19.2656 29.3848 19.166C29.666 19.0371 29.7891 18.9082 29.9121 18.6152C30.0469 18.293 30.0469 11.707 29.9121 11.3848C29.7891 11.0918 29.666 10.9629 29.3848 10.834C29.168 10.7344 28.9219 10.7227 25.6934 10.7227C22.4356 10.7227 22.2246 10.7285 22.0313 10.834ZM27.8321 15V17.168L25.711 17.1563L23.584 17.1387L23.5664 15.0586C23.5606 13.916 23.5664 12.9434 23.584 12.9082C23.6016 12.8496 24.082 12.832 25.7227 12.832H27.8321V15Z" fill="white"/>
<path d="M0.615234 21.5449C0.345703 21.6855 0.228516 21.8086 0.111328 22.0605C0.0117188 22.2773 0 22.5234 0 25.7168C0 29.0918 0 29.1445 0.123047 29.4023C0.199219 29.5547 0.345703 29.7187 0.486328 29.8125L0.726562 29.9707L4.1543 29.9883C6.43359 30 7.6582 29.9883 7.79883 29.9473C8.08594 29.8594 8.30273 29.6836 8.4375 29.4082C8.54883 29.1914 8.55469 29.0508 8.55469 25.7227C8.55469 22.916 8.53711 22.2246 8.47266 22.0723C8.37891 21.8437 8.11523 21.5918 7.89258 21.5098C7.78125 21.4687 6.57422 21.4453 4.25977 21.4453C1.20703 21.4512 0.767578 21.4629 0.615234 21.5449ZM6.44531 25.6934V27.832H4.30664H2.16797V25.6934V23.5547H4.30664H6.44531V25.6934Z" fill="white"/>
<path d="M11.3085 21.5566C11.1972 21.6152 11.0273 21.7617 10.9276 21.8789L10.7519 22.1016L10.7343 25.5645C10.7226 27.8672 10.7343 29.1035 10.7753 29.2441C10.8632 29.543 11.0566 29.7598 11.3319 29.8887C11.5546 29.9883 11.789 30 14.9999 30C18.2108 30 18.4452 29.9883 18.6679 29.8887C18.9433 29.7598 19.1366 29.543 19.2245 29.2441C19.2655 29.1035 19.2773 27.8672 19.2655 25.5645L19.248 22.1016L19.0722 21.8789C18.6972 21.4219 18.914 21.4453 14.9999 21.4453C11.7128 21.4453 11.5019 21.4512 11.3085 21.5566ZM17.1562 25.7051L17.1679 27.832H14.9999H12.8319V25.7344C12.8319 24.5801 12.8495 23.6133 12.873 23.5957C12.8964 23.5723 13.8632 23.5605 15.0233 23.5664L17.1386 23.584L17.1562 25.7051Z" fill="white"/>
<path d="M22.0605 21.5273C21.8438 21.6269 21.5918 21.8906 21.5098 22.1074C21.4688 22.2187 21.4453 23.4316 21.4453 25.7285C21.4453 29.0508 21.4512 29.1914 21.5625 29.4082C21.6973 29.6836 21.9141 29.8594 22.2012 29.9473C22.3418 29.9883 23.5664 30 25.8457 29.9883L29.2734 29.9707L29.5137 29.8125C29.6543 29.7187 29.8008 29.5547 29.877 29.4023C30 29.1445 30 29.0859 30 25.7344C30 22.793 29.9883 22.2891 29.9121 22.1074C29.7949 21.8262 29.6719 21.6914 29.4023 21.5566C29.1973 21.4512 29.0039 21.4453 25.7109 21.4453C22.9395 21.4512 22.2012 21.4629 22.0605 21.5273ZM27.832 25.6934V27.832H25.6934H23.5547V25.6934V23.5547H25.6934H27.832V25.6934Z" fill="white"/>
</g>
<defs>
<clipPath id="clip0_5_306">
<rect width="30" height="30" fill="white"/>
</clipPath>
</defs>
</svg>
