<svg width="133" height="78" viewBox="0 0 133 78" fill="none" xmlns="http://www.w3.org/2000/svg">
<path d="M0.8 11.088L10.688 1.2H48.608L55.328 7.92V0.239994H59.648V26.16H55.328V13.872L46.496 5.04H22.88V74.16H48.704L57.344 65.52L60.32 68.496L50.816 78H10.688L0.8 68.112V11.088ZM123.654 78L132.582 69.072V46.608L124.614 38.64L132.582 30.672V10.128L123.654 1.2H67.0138V5.04H74.6938V74.16H67.0138V78H123.654ZM96.7738 5.04H110.502V36.72H96.7738V5.04ZM96.7738 40.56H110.502V74.16H96.7738V40.56Z" fill="#248C45"/>
</svg>
