<svg width="512" height="507" viewBox="0 0 512 507" fill="none" xmlns="http://www.w3.org/2000/svg">
<path d="M39.4998 1.4C22.4998 5.5 7.89976 20.2 3.99976 37C1.19976 49 3.29976 63.1 9.39976 73.4C10.7998 75.7 51.2998 116.9 99.3998 165L187 252.5L98.1998 341.5C2.59976 437.3 5.19976 434.4 1.49976 448.5C-1.40024 460 0.199757 471.9 6.19976 483.2C15.5998 500.9 37.6998 509.5 61.0998 504.6C75.0998 501.6 71.3998 504.9 166.5 409.9C214.9 361.6 255 322 255.5 322C256 322 296.1 361.5 344.5 409.9C426.1 491.4 433 498 439 500.8C459.7 510.4 484.7 506.5 499 491.4C512.5 477.2 515.6 455.4 506.8 437.1C503.9 431 496.9 423.8 414.1 341.3L324.5 252.2L411.6 164.8C465.9 110.4 499.7 75.8 501.3 73C505.7 65.2 507.3 57.8 506.8 47.1C506.2 35.6 503.8 28.6 497.5 20.2C485.2 3.9 462.9 -3 443.5 3.6C432.4 7.3 427.4 12 340.6 98.9L255.6 183.9L168.1 96.7C73.9998 3.09998 76.2998 5.1 62.4998 1.5C55.5998 -0.299995 46.4998 -0.299995 39.4998 1.4Z" fill="white"/>
</svg>
