<svg width="512" height="506" viewBox="0 0 512 506" fill="none" xmlns="http://www.w3.org/2000/svg">
<path d="M39.4051 1.26276C22.4051 5.36276 7.80503 20.0628 3.90503 36.8628C1.10503 48.8628 3.20503 62.9628 9.30503 73.2628C10.7051 75.5628 51.2051 116.763 99.3051 164.863L186.905 252.363L98.1051 341.363C2.50504 437.163 5.10503 434.263 1.40503 448.363C-1.49497 459.863 0.105028 471.763 6.10503 483.063C15.5051 500.763 37.6051 509.363 61.0051 504.463C75.0051 501.463 71.3051 504.763 166.405 409.763C214.805 361.463 254.905 321.863 255.405 321.863C255.905 321.863 296.005 361.363 344.405 409.763C426.005 491.263 432.905 497.863 438.905 500.663C459.605 510.263 484.605 506.363 498.905 491.263C512.405 477.063 515.505 455.263 506.705 436.963C503.805 430.863 496.805 423.663 414.005 341.163L324.405 252.063L411.505 164.663C465.805 110.263 499.605 75.6628 501.205 72.8628C505.605 65.0628 507.205 57.6628 506.705 46.9628C506.105 35.4628 503.705 28.4628 497.405 20.0628C485.105 3.76277 462.805 -3.13724 443.405 3.46276C432.305 7.16276 427.305 11.8628 340.505 98.7628L255.505 183.763L168.005 96.5628C73.9051 2.96274 76.2051 4.96276 62.4051 1.36276C55.5051 -0.437231 46.4051 -0.437231 39.4051 1.26276Z" fill="#FF0000"/>
</svg>
