<svg width="15" height="15" viewBox="0 0 15 15" fill="none" xmlns="http://www.w3.org/2000/svg">
<path d="M1.025 0.0611658C0.571875 0.218557 0.184375 0.64385 0.05 1.13277C0.00625 1.29686 0 1.81257 0 5.89471C0 10.295 0.003125 10.4825 0.059375 10.6767C0.203125 11.169 0.596875 11.5876 1.05938 11.7316C1.19687 11.7751 1.4 11.7852 2.11563 11.7852H3V13.2151C3 14.5848 3.00312 14.6517 3.0625 14.7589C3.15313 14.9196 3.29688 15 3.49375 15C3.58438 15 3.69062 14.9833 3.72813 14.9632C3.76562 14.9397 4.62188 14.2164 5.62813 13.3558L7.4625 11.7852H10.6188C13.6281 11.7852 13.7844 11.7818 13.9656 11.7216C14.425 11.5675 14.8156 11.1456 14.95 10.65C14.9938 10.4859 15 9.97016 15 5.89136C15 1.81257 14.9938 1.29686 14.95 1.13277C14.8156 0.637153 14.425 0.215209 13.9656 0.0611658C13.7812 0.000887871 13.575 -0.00246048 7.49062 0.000887871C1.48125 0.000887871 1.19375 0.00423717 1.025 0.0611658ZM13.575 1.10263C13.7281 1.13947 13.8406 1.22654 13.9219 1.37388C13.9844 1.48774 13.9844 1.54802 13.9844 5.89136C13.9844 10.2347 13.9844 10.295 13.9219 10.4088C13.8406 10.5562 13.7281 10.6433 13.575 10.6801C13.5063 10.7002 12.0656 10.7136 10.2625 10.7136H7.07188L6.9625 10.794C6.90313 10.8375 6.21875 11.4168 5.44375 12.0832C4.66563 12.7463 4.025 13.2921 4.01562 13.2921C4.00625 13.2921 4 12.7898 4 12.177C4 11.1355 3.99688 11.0585 3.9375 10.958C3.80938 10.727 3.83125 10.7337 2.54688 10.7136C1.45312 10.6968 1.38437 10.6935 1.28125 10.6265C1.13125 10.5327 1.0375 10.3754 1.01562 10.1677C1.00625 10.0706 1 8.07811 1.00625 5.74067C1.01562 1.55806 1.01562 1.48439 1.07812 1.37388C1.15625 1.23323 1.27188 1.13612 1.40938 1.10263C1.55938 1.06579 13.425 1.06245 13.575 1.10263Z" fill="white"/>
<path d="M3.225 4.35093C3.075 4.45139 3 4.60209 3 4.81976C3 5.03743 3.075 5.18812 3.225 5.28859C3.325 5.35556 3.39062 5.35556 7.5 5.35556C11.6094 5.35556 11.675 5.35556 11.775 5.28859C11.925 5.18812 12 5.03743 12 4.81976C12 4.60209 11.925 4.45139 11.775 4.35093C11.675 4.28396 11.6094 4.28396 7.5 4.28396C3.39062 4.28396 3.325 4.28396 3.225 4.35093Z" fill="white"/>
<path d="M3.225 6.49414C3.075 6.5946 3 6.7453 3 6.96297C3 7.18064 3.075 7.33133 3.225 7.43179C3.325 7.49542 3.3875 7.49877 5.5 7.49877C7.6125 7.49877 7.675 7.49542 7.775 7.43179C7.925 7.33133 8 7.18064 8 6.96297C8 6.7453 7.925 6.5946 7.775 6.49414C7.675 6.43051 7.6125 6.42717 5.5 6.42717C3.3875 6.42717 3.325 6.43051 3.225 6.49414Z" fill="white"/>
</svg>
