<svg width="51" height="53" viewBox="0 0 51 53" fill="none" xmlns="http://www.w3.org/2000/svg">
<path d="M15.7753 0.116417C13.6773 0.426552 11.8466 1.00405 10.0674 1.93446C1.90144 6.18011 -1.95528 15.9227 0.975828 24.8632C3.85551 33.6325 12.5768 38.9476 21.3496 37.2793C23.3756 36.905 25.9365 35.8783 27.5615 34.7982C27.87 34.595 28.1682 34.4025 28.23 34.3597C28.2917 34.3277 28.2505 34.5736 28.1374 34.9052C27.7054 36.2206 28.1888 37.6964 29.351 38.6482L29.6184 38.8728L28.2402 42.1238C26.7695 45.5674 26.2553 47.0539 25.9159 48.7757C25.6999 49.8879 25.4943 51.7274 25.4943 52.5294V53H26.3067H27.1089L27.1809 51.8664C27.2632 50.4975 27.4689 49.2249 27.8186 47.8774C28.1271 46.6689 28.4254 45.8883 29.5361 43.2681L30.3794 41.3004L30.4103 47.1502L30.4309 53H31.2536H32.0764L32.0867 47.1395L32.097 41.2897L32.4569 42.0918C34.4315 46.4764 35.1412 48.8934 35.3263 51.8664L35.3983 53H36.2005H37.013V52.5294C37.013 51.7274 36.8073 49.8879 36.5913 48.7757C36.2519 47.0539 35.7377 45.5674 34.267 42.1238C32.9711 39.0653 32.8992 38.8621 33.074 38.723C33.218 38.6161 33.29 38.6054 33.4031 38.7016C33.4854 38.7765 33.9687 39.2043 34.483 39.6534L35.4189 40.4876L36.0154 39.8673L36.6016 39.2578L37.8563 40.5625L39.111 41.8779L38.7099 42.3056L38.3088 42.7334L40.1292 44.637L41.9496 46.5299L44.5927 43.7708L47.2461 41.0223L45.4258 39.1294L43.5951 37.2365L43.1837 37.6536L42.7723 38.0707L41.5073 36.766L40.2526 35.4613L40.8491 34.8517L41.4353 34.2314L38.0929 30.1676C35.7274 27.3122 34.7607 26.0609 34.8121 25.9433C35.1 25.2695 35.604 23.5584 35.7788 22.7243C37.1878 15.6874 34.8018 8.71468 29.4024 4.10541C27.2323 2.25529 24.0544 0.758076 21.1747 0.223358C19.8275 -0.0226097 17.0712 -0.0760841 15.7753 0.116417ZM20.1463 1.81682C21.4216 1.99862 22.594 2.29807 23.7459 2.73653C25.412 3.37819 25.4223 3.3675 22.6763 3.37819C21.0616 3.37819 20.0743 3.42097 19.7966 3.50653C18.9121 3.78458 18.0894 4.96096 18.0894 5.94484C18.0894 6.92872 18.9121 8.1051 19.7966 8.38315C20.0949 8.46871 21.2159 8.51148 23.4271 8.51148H26.6358L26.8827 8.77884C27.2221 9.12106 27.2221 9.613 26.8827 9.95522L26.6358 10.2226H24.2498C22.6763 10.2226 21.7198 10.2654 21.4421 10.3509C20.5577 10.629 19.7349 11.8053 19.7349 12.7892C19.7349 13.7731 20.5577 14.9495 21.4421 15.2275C21.7507 15.3238 23.0877 15.3559 26.1525 15.3559H30.4309V14.5003V13.6448H26.1628H21.8844L21.6375 13.3774C21.2981 13.0352 21.2981 12.5433 21.6375 12.201L21.8844 11.9337H24.2704C25.8439 11.9337 26.8004 11.8909 27.0781 11.8053C27.9626 11.5273 28.7853 10.3509 28.7853 9.36703C28.7853 8.38315 27.9626 7.20677 27.0781 6.92872C26.7798 6.84317 25.6588 6.80039 23.4476 6.80039H20.2388L19.992 6.53303C19.8275 6.37261 19.7349 6.14803 19.7349 5.94484C19.7349 5.74165 19.8275 5.51706 19.992 5.35665L20.2388 5.08929H24.0956H27.9523L28.6516 5.70956C30.2457 7.14261 31.6547 8.92856 32.6112 10.7573C32.9814 11.4631 33.7219 13.3026 33.7219 13.5271C33.7219 13.602 33.4442 13.6448 32.8992 13.6448H32.0764V14.5003V15.3559H33.146H34.2156L34.3493 16.1259C34.555 17.2809 34.5241 20.5106 34.3081 21.719C34.1024 22.8205 33.6191 24.553 33.5162 24.553C33.4854 24.553 33.1151 24.1359 32.6935 23.6333L31.9427 22.7136L32.6009 22.0291L33.2591 21.3447L31.4285 19.4411L29.6081 17.5482L24.4967 22.874L19.3749 28.1891L21.1953 30.082L23.026 31.9856L23.6842 31.3012L24.3424 30.6167L25.6897 31.8145C26.4302 32.4775 27.0369 33.055 27.0369 33.0871C27.0369 33.1834 25.5251 34.071 24.8258 34.3918C24.3938 34.5843 22.3369 35.3543 22.234 35.3543C22.2135 35.3543 22.2032 35.2046 22.2032 35.0228C22.2032 34.0496 21.3701 32.8625 20.496 32.5952C20.1977 32.5096 18.9944 32.4668 16.4541 32.4668H12.8339L12.5871 32.1995C12.4226 32.0391 12.33 31.8145 12.33 31.6113C12.33 31.4081 12.4226 31.1835 12.5871 31.0231C12.8237 30.7664 12.8751 30.7557 14.3972 30.7557C16.3101 30.7557 16.6392 30.6702 17.318 29.9537C18.0482 29.2051 18.2539 28.403 17.9659 27.3977C17.8014 26.8095 16.9478 25.9219 16.3821 25.7508C16.0736 25.6545 14.6132 25.6225 11.1061 25.6225H6.25181L6.00499 25.3551C5.66559 25.0129 5.66559 24.5209 6.00499 24.1787C6.22096 23.9434 6.34438 23.9114 6.9923 23.9114C8.04133 23.9114 8.48357 23.7402 9.09036 23.1093C9.82056 22.3607 10.0263 21.5586 9.73829 20.5533C9.57373 19.9651 8.72011 19.0775 8.15446 18.9064C7.86649 18.8208 6.76604 18.7781 4.66799 18.7781H1.60319L1.67518 17.6765C1.8603 14.7998 2.77563 11.9658 4.34917 9.42051L4.87368 8.56496L4.9251 11.8802C4.98681 15.6339 4.98681 15.666 5.80958 16.4146C6.82775 17.345 8.11332 17.2915 9.09036 16.2649C9.79999 15.5377 9.8617 15.2596 9.8617 12.7999C9.8617 10.768 9.8617 10.7466 10.1188 10.4899C10.2731 10.3188 10.4891 10.2226 10.6845 10.2226C10.8799 10.2226 11.0958 10.3188 11.2501 10.4899L11.5072 10.7466V14.511C11.5072 17.1525 11.5484 18.4038 11.6306 18.7139C11.898 19.6336 13.0293 20.4892 13.9755 20.4892C14.9217 20.4892 16.053 19.6336 16.3204 18.7139C16.4027 18.4038 16.4438 17.0991 16.4438 14.2437V10.2226H15.6211H14.7983V14.233V18.254L14.5412 18.5107C14.3869 18.6818 14.1709 18.7781 13.9755 18.7781C13.7801 18.7781 13.5641 18.6818 13.4099 18.5107L13.1528 18.254V14.4896C13.1528 11.8481 13.1116 10.5969 13.0293 10.2867C12.8648 9.69856 12.0112 8.81092 11.4455 8.63982C10.4788 8.34037 9.70743 8.55426 8.98751 9.31356C8.27788 10.0408 8.21617 10.3188 8.21617 12.7785C8.21617 14.8105 8.21617 14.8318 7.95905 15.0885C7.62995 15.4414 7.15686 15.4414 6.82775 15.0885L6.57064 14.8318V10.7145V6.5865L7.03344 6.14803C9.00808 4.25513 11.6512 2.77931 14.2121 2.14834L14.7983 2.00932V3.5493V5.08929H15.6211H16.4438V3.44236C16.4438 1.81682 16.4438 1.78474 16.6804 1.74196C17.2049 1.63501 19.1384 1.67779 20.1463 1.81682ZM30.2766 20.703L30.8937 21.3447L26.9547 25.4406L23.026 29.5259L22.3883 28.8521L21.7404 28.1891L25.6485 24.1252C27.798 21.8901 29.5772 20.0614 29.6081 20.0614C29.6389 20.0614 29.9372 20.3501 30.2766 20.703ZM7.95905 20.7565C8.12361 20.9169 8.21617 21.1415 8.21617 21.3447C8.21617 21.5479 8.12361 21.7725 7.95905 21.9329C7.74308 22.1682 7.61966 22.2003 6.97174 22.2003C5.92271 22.2003 5.48047 22.3714 4.87368 23.0023C3.82466 24.0825 3.82466 25.4513 4.87368 26.5315C5.1925 26.8737 5.54218 27.1197 5.80958 27.2052C6.11812 27.3015 7.57853 27.3335 11.0856 27.3335H15.9399L16.1867 27.6009C16.5261 27.9431 16.5261 28.4351 16.1867 28.7773C15.9502 29.034 15.8987 29.0446 14.3766 29.0446C12.4637 29.0446 12.1346 29.1302 11.4558 29.8467C10.7256 30.5953 10.5199 31.3974 10.8079 32.4027C10.9724 32.9909 11.8261 33.8785 12.3917 34.0496C12.69 34.1352 13.8933 34.1779 16.4335 34.1779H20.0537L20.3005 34.4453C20.496 34.6378 20.5577 34.8196 20.5577 35.1832C20.5577 35.6538 20.5474 35.6645 20.1771 35.75C19.4469 35.9104 16.2587 35.8356 15.2611 35.6431C8.41158 34.2742 3.24872 28.9805 1.93229 21.9543C1.82945 21.3768 1.73689 20.81 1.73689 20.703C1.73689 20.4999 1.81916 20.4892 4.71941 20.4892H7.71222L7.95905 20.7565ZM39.0288 33.964C39.1522 34.1138 38.9053 34.4025 37.2392 36.135L35.316 38.1348L34.8224 37.6857L34.3287 37.2258L34.4521 36.6483C34.6167 35.8463 34.5035 35.0228 34.1127 34.2635C33.7528 33.5577 33.4237 33.2261 32.6523 32.8091C31.9427 32.4348 30.7291 32.4027 30.0092 32.7449L29.5361 32.9802L27.5203 31.1835L25.5148 29.3976L28.1374 26.6705L30.7702 23.9327L34.8326 28.8628C37.0644 31.5792 38.9568 33.8785 39.0288 33.964ZM31.9015 34.3277C32.9609 34.7875 33.218 36.2206 32.3952 37.0761C31.7267 37.7712 30.7805 37.7712 30.112 37.0761C28.8367 35.7607 30.2457 33.6004 31.9015 34.3277ZM40.3555 38.0279L41.5896 39.3112L40.9417 39.9743L40.304 40.648L39.0493 39.3433L37.7843 38.0279L38.4014 37.3862C38.7408 37.0333 39.039 36.7446 39.0699 36.7446C39.1007 36.7446 39.6767 37.3221 40.3555 38.0279ZM44.2636 40.3807L44.8807 41.0223L43.41 42.5516L41.9496 44.0702L41.3119 43.3965L40.664 42.7334L42.1038 41.2362C42.8958 40.4127 43.5643 39.739 43.5951 39.739C43.626 39.739 43.9242 40.0277 44.2636 40.3807Z" fill="white"/>
<path d="M14.7983 7.65593V8.51148H15.6211H16.4438V7.65593V6.80039H15.6211H14.7983V7.65593Z" fill="white"/>
<path d="M39.4401 2.24459C39.3476 2.99319 38.8848 3.99846 38.3397 4.59734C37.8152 5.19623 36.7044 5.79511 35.9331 5.89136L35.3674 5.96622V6.80038V7.63454L35.9228 7.69871C36.6427 7.79495 37.6095 8.2762 38.1854 8.843C38.7614 9.38841 39.3373 10.5434 39.4299 11.3455L39.5018 11.9337H40.304H41.1062L41.1782 11.3455C41.2708 10.5434 41.8467 9.38841 42.4227 8.843C42.9986 8.2762 43.9654 7.79495 44.6853 7.69871L45.2406 7.63454V6.80038V5.96622L44.6853 5.90205C43.9654 5.8058 42.9986 5.32456 42.4227 4.75776C41.8467 4.21235 41.2708 3.05736 41.1782 2.25528L41.1062 1.66709H40.304H39.5018L39.4401 2.24459ZM40.7154 5.30317C41.024 5.76303 41.641 6.35122 42.1553 6.70413C42.289 6.78969 42.289 6.81107 42.1553 6.89663C41.641 7.24954 41.024 7.83773 40.7154 8.29759C40.52 8.58634 40.3349 8.82161 40.304 8.82161C40.2732 8.82161 40.0881 8.58634 39.8927 8.2869C39.6973 7.99815 39.2859 7.55968 38.9979 7.30301C38.6996 7.05704 38.4528 6.83246 38.4528 6.80038C38.4528 6.7683 38.6996 6.54372 38.9979 6.29775C39.2859 6.04108 39.6973 5.60261 39.8927 5.31386C40.0881 5.01442 40.2732 4.77915 40.304 4.77915C40.3349 4.77915 40.52 5.01442 40.7154 5.30317Z" fill="white"/>
<path d="M41.1268 14.5003V15.3559H40.304H39.4813V16.2114V17.067H40.304H41.1268V17.9225V18.7781H41.9496H42.7723V17.9225V17.067H43.5951H44.4179V16.2114V15.3559H43.5951H42.7723V14.5003V13.6448H41.9496H41.1268V14.5003ZM42.7723 16.2114V17.067H41.9496H41.1268V16.2114V15.3559H41.9496H42.7723V16.2114Z" fill="white"/>
<path d="M47.7089 21.3447V22.2003H46.8862H46.0634V23.0558V23.9114H46.8862H47.7089V24.7669V25.6225H48.5317H49.3545V24.7669V23.9114H50.1772H51V23.0558V22.2003H50.1772H49.3545V21.3447V20.4892H48.5317H47.7089V21.3447ZM49.3545 23.0558V23.9114H48.5317H47.7089V23.0558V22.2003H48.5317H49.3545V23.0558Z" fill="white"/>
<path d="M5.70673 41.5998C5.61417 42.3484 5.15137 43.3537 4.60628 43.9526C4.08177 44.5515 2.97104 45.1504 2.19969 45.2466L1.63404 45.3215V46.1556V46.9898L2.18941 47.0539C2.90933 47.1502 3.87608 47.6314 4.45201 48.1982C5.02795 48.7437 5.60389 49.8986 5.69645 50.7007L5.76844 51.2889H6.57064H7.37283L7.44483 50.7007C7.53739 49.8986 8.11332 48.7437 8.68926 48.1982C9.2652 47.6314 10.2319 47.1502 10.9519 47.0539L11.5072 46.9898V46.1556V45.3215L10.9519 45.2573C10.2319 45.161 9.2652 44.6798 8.68926 44.113C8.11332 43.5676 7.53739 42.4126 7.44483 41.6105L7.37283 41.0223H6.57064H5.76844L5.70673 41.5998ZM6.98202 44.6584C7.29056 45.1183 7.90763 45.7065 8.42186 46.0594C8.55556 46.1449 8.55556 46.1663 8.42186 46.2519C7.90763 46.6048 7.29056 47.193 6.98202 47.6528C6.78661 47.9416 6.60149 48.1769 6.57064 48.1769C6.53978 48.1769 6.35466 47.9416 6.15925 47.6421C5.96385 47.3534 5.55246 46.9149 5.2645 46.6583C4.96624 46.4123 4.71941 46.1877 4.71941 46.1556C4.71941 46.1235 4.96624 45.899 5.2645 45.653C5.55246 45.3963 5.96385 44.9579 6.15925 44.6691C6.35466 44.3697 6.53978 44.1344 6.57064 44.1344C6.60149 44.1344 6.78661 44.3697 6.98202 44.6584Z" fill="white"/>
<path d="M17.2666 48.7223V49.5778H16.4438H15.6211V50.4334V51.2889H16.4438H17.2666V52.1445V53H18.0894H18.9121V52.1445V51.2889H19.7349H20.5577V50.4334V49.5778H19.7349H18.9121V48.7223V47.8667H18.0894H17.2666V48.7223ZM18.9121 50.4334V51.2889H18.0894H17.2666V50.4334V49.5778H18.0894H18.9121V50.4334Z" fill="white"/>
</svg>
