<svg width="50" height="54" viewBox="0 0 50 54" fill="none" xmlns="http://www.w3.org/2000/svg">
<path d="M4.8377 0.13118C4.38291 0.279144 3.64141 1.01896 3.42391 1.52625C3.2064 2.03355 3.17674 3.02701 3.37447 3.52374C3.56232 3.99934 4.15552 4.69687 4.52133 4.8554L4.81793 4.98223V7.66669V10.3511H6.42945H8.04098L8.2486 10.7422C8.97033 12.1161 8.27826 13.5852 6.77549 13.8811L6.39979 13.9551V14.7372V15.5298H5.51988C4.70917 15.5298 4.63008 15.5087 4.57076 15.3079C4.46201 14.938 3.80949 14.2404 3.38436 14.0396C2.86037 13.786 1.93102 13.786 1.40703 14.0396C-0.422007 14.9274 -0.481327 17.7175 1.30816 18.6476C2.50445 19.2817 4.05665 18.7321 4.52133 17.5273C4.63997 17.2208 4.64985 17.2208 5.51988 17.2208H6.39979V17.9923V18.7744L7.01277 18.9541C8.37713 19.3557 8.93078 20.7085 8.2486 21.9979L8.04098 22.3995H6.42945H4.81793V27.6733V32.9471L4.52133 33.0739C4.14563 33.243 3.58209 33.8983 3.38436 34.4056C3.18663 34.934 3.19651 35.8852 3.42391 36.4031C3.66119 36.9738 4.41257 37.6607 4.96623 37.8298C6.96333 38.4217 8.70339 36.1917 7.77404 34.2259C7.54665 33.7397 7.08197 33.243 6.69639 33.0528L6.39979 32.9154L6.41957 28.5294L6.44923 24.1433L7.88279 24.1116L9.31636 24.0905L10.2853 25.1051L11.2443 26.1303V27.7895V29.4488L10.8092 29.7448C8.77259 31.1187 9.65251 34.4373 12.0649 34.4478C12.747 34.4478 13.2513 34.247 13.6962 33.782C14.665 32.7886 14.7441 31.3089 13.8939 30.2732C13.6764 30.009 13.3699 29.7236 13.2117 29.6285L12.925 29.47V27.4196C12.925 26.0668 12.9645 25.3587 13.0239 25.3587C13.2117 25.3587 13.8642 25.7604 14.0817 26.014C14.3091 26.2782 14.6057 27.0392 14.6057 27.3774C14.6057 27.5676 14.7244 27.5782 16.8797 27.5782C18.6197 27.5782 19.1734 27.5465 19.203 27.4408C19.2228 27.3774 19.292 27.1026 19.3513 26.8384C19.47 26.3839 20.0829 25.5701 20.3301 25.5701C20.4586 25.5701 22.2877 27.7684 22.9698 28.7407C23.2368 29.1318 23.6125 29.8082 23.8003 30.2309C24.1266 30.9919 24.1365 31.0553 24.1958 32.704C24.2452 34.2787 24.265 34.4267 24.5023 34.86L24.7593 35.3251L24.4825 35.9063C23.9684 36.9421 24.1167 37.9567 24.9175 38.855L25.4217 39.4257L24.3441 41.7297C23.6323 43.2622 23.306 44.0865 23.3554 44.1816C23.6323 44.6889 29.7719 54 29.8312 54C29.9103 54 36.2279 44.393 36.3168 44.1394C36.3465 44.0548 35.8818 42.9451 35.2886 41.6769L34.2209 39.3623L34.6361 38.9607C35.5259 38.1046 35.7236 36.7413 35.1107 35.7689L34.8734 35.3885L35.1403 34.8917C35.3974 34.4373 35.4172 34.2999 35.4765 32.704C35.5358 30.9285 35.6248 30.5268 36.129 29.6602L36.3564 29.2692H37.6812C39.7475 29.2692 41.9127 28.8041 43.7714 27.9481L44.5821 27.5782H47.291H50V19.8102V12.0421H47.3603H44.7304L44.0284 11.3235C43.6429 10.9219 43.2375 10.5308 43.1288 10.4463C43.0101 10.3617 42.8223 9.99181 42.6937 9.61133C42.5652 9.23086 42.3082 8.58617 42.1104 8.18455C40.1924 4.07332 36.6134 1.16692 32.3325 0.236866C31.0275 -0.0484886 28.4471 -0.0167809 27.0629 0.300282C24.4133 0.902699 22.0998 2.23436 20.1917 4.25299L19.3019 5.1936L16.9785 5.17247L14.6552 5.1619L14.5365 5.71147C14.3783 6.38787 14.2201 6.65209 13.7456 7.04313C13.4292 7.30735 13.3007 7.33905 12.6778 7.33905C12.0649 7.33905 11.9166 7.29678 11.5409 7.03256L11.1157 6.73664L10.216 7.69839L9.30647 8.67072L7.88279 8.63901L6.44923 8.6073L6.41957 6.84232L6.39979 5.08791L6.7656 4.84483C7.59608 4.29526 8.01132 3.53431 8.02121 2.58313C8.02121 0.828716 6.41957 -0.418392 4.8377 0.13118ZM5.99444 1.84332C6.30093 2.01241 6.39979 2.19208 6.39979 2.5937C6.39979 2.99531 6.24161 3.23839 5.90546 3.36521C5.17385 3.62943 4.5411 2.7945 4.97611 2.12867C5.11453 1.90673 5.42101 1.70592 5.63852 1.69535C5.67807 1.68478 5.84614 1.75877 5.99444 1.84332ZM32.1051 1.95957C35.5655 2.70995 38.5018 4.93995 40.3111 8.21626C40.5385 8.63901 40.7065 9.00891 40.6769 9.04062C40.6472 9.07233 40.3902 9.01948 40.0936 8.92437C39.7772 8.81868 38.7094 8.69185 37.3549 8.59673C34.5373 8.4065 33.7265 8.2374 31.0967 7.32849C29.6829 6.84232 29.6137 6.83176 29.1095 6.95858C27.4683 7.34962 26.9443 9.26256 27.9428 11.2601C28.5756 12.5389 29.6137 13.2047 31.4922 13.5218C31.8777 13.5957 32.204 13.6909 32.204 13.7437C32.204 13.7966 31.0473 13.8388 29.4852 13.8388C27.0036 13.8388 26.7268 13.8177 26.3906 13.638C25.926 13.3844 25.6294 13.0462 25.4316 12.5494C25.2042 11.9682 25.2438 11.5137 25.5898 10.7739L25.9062 10.1186L24.3243 8.42764L22.7425 6.73664L22.3074 7.03256C21.7637 7.40247 20.953 7.49759 20.3993 7.24393L20.0236 7.07484L20.251 6.73664C20.6564 6.11308 22.0504 4.69687 22.8117 4.12616C24.5913 2.78393 26.5093 2.04412 28.9414 1.7482C29.5445 1.67421 31.334 1.80104 32.1051 1.95957ZM18.0463 7.12768C18.1155 7.27564 18.3725 7.64555 18.6296 7.94147C19.4897 8.92437 20.7651 9.34711 21.9416 9.05119L22.4953 8.90322L23.2071 9.66418L23.919 10.4251L23.8102 10.8373C23.6421 11.4609 23.6817 12.4543 23.8992 13.099C24.0079 13.4161 24.087 13.712 24.0969 13.7543C24.0969 13.8071 23.6323 13.8388 23.0687 13.8388H22.0504L21.6945 13.2258C21.2891 12.5177 20.3894 11.5665 19.7369 11.1649C18.1452 10.1715 16.1579 10.0975 14.4574 10.9853C13.4589 11.5031 12.8657 12.0527 12.2527 13.025C11.5903 14.103 11.3036 15.0965 11.3036 16.3753C11.3135 18.0875 11.8572 19.4825 12.9645 20.6557C15.1297 22.9385 18.5208 22.9808 20.7157 20.7613C21.0815 20.3914 21.5165 19.8524 21.6747 19.5565L21.9713 19.0175H23.0786H24.176L23.9783 19.4614C23.7212 20.0215 23.6323 21.163 23.7904 21.8288L23.9091 22.3255L23.1874 23.1076C22.7128 23.6149 22.4162 23.858 22.3173 23.8157C21.5561 23.5092 20.3795 23.5832 19.6183 24.0059C19.1042 24.2807 18.3429 25.0417 18.1056 25.5173L17.9178 25.8872H16.9192H15.9108L15.6636 25.4327C14.932 24.1011 13.4292 23.3824 12.0055 23.6994L11.353 23.8368L10.6412 23.0759L9.93922 22.3149L10.0579 21.7654C10.394 20.2646 9.64262 18.3834 8.42656 17.6858L8.08053 17.485V16.3647C8.08053 15.2656 8.09041 15.2445 8.32769 15.1282C8.46611 15.0542 8.80225 14.79 9.05931 14.5258C9.91945 13.6592 10.3347 12.2112 10.0579 10.9853L9.93922 10.4357L10.6511 9.66418C11.2541 9.01948 11.4024 8.90322 11.5804 8.96664C12.3219 9.26256 13.4688 9.16745 14.2399 8.7447C14.7639 8.45934 15.367 7.86749 15.6636 7.31792L15.9108 6.86346H16.9192C17.9079 6.86346 17.9375 6.87403 18.0463 7.12768ZM31.0275 9.13574C33.1531 9.88612 35.7434 10.3511 37.8592 10.3511C39.7772 10.3511 41.4678 11.091 42.9113 12.56L43.5737 13.2364V19.715V26.1937L42.763 26.5213C41.6952 26.9652 40.3803 27.314 39.273 27.4619C38.7292 27.5359 36.3564 27.5782 33.1828 27.5782C28.0714 27.5782 27.9725 27.5782 27.7154 27.3562C27.3793 27.0709 27.3595 26.4896 27.6759 26.1303C27.8835 25.8872 27.9231 25.8872 30.0487 25.8872H32.204V24.9888V24.0905H29.238H26.2621L26.0248 23.8263C25.6986 23.4775 25.7085 23.0865 26.0644 22.706L26.3511 22.3995H29.2775H32.204V21.554V20.7085H29.2775H26.3511L26.0644 20.402C25.7085 20.0215 25.6986 19.6305 26.0248 19.2817L26.2621 19.0175H29.238H32.204V18.1192V17.2208H26.0248H19.8358L19.5985 16.9566C19.2722 16.6184 19.2722 16.1322 19.5985 15.794L19.8358 15.5298H26.1435C32.0656 15.5298 32.4709 15.5087 32.8565 15.329C33.9342 14.8111 34.1813 13.4055 33.3607 12.4966C33.0147 12.095 32.7675 11.9999 31.591 11.7885C30.5233 11.5983 30.1476 11.408 29.6433 10.8267C29.1095 10.2137 28.8524 9.1146 29.1589 8.78697C29.3467 8.58617 29.6335 8.63901 31.0275 9.13574ZM17.6904 12.1584C17.9771 12.2218 18.4418 12.4015 18.7087 12.5389C19.1833 12.7925 20.0434 13.5746 20.0434 13.7543C20.0434 13.7966 19.9248 13.8388 19.7765 13.8388C19.6183 13.8388 19.2623 13.9762 18.9855 14.1453C18.6691 14.3356 18.4418 14.4095 18.4022 14.3461C18.2539 14.103 17.5025 13.8388 16.9192 13.8388C14.9814 13.8388 13.8445 16.1111 14.932 17.8127C15.3769 18.5208 16.0887 18.9224 16.8599 18.9224C17.4531 18.933 18.2539 18.6476 18.4022 18.3939C18.4516 18.32 18.5999 18.3728 18.857 18.5525C19.0646 18.7004 19.4205 18.8484 19.638 18.8801C19.8654 18.9118 20.0434 18.9752 20.0434 19.0175C20.0434 19.2077 19.1833 19.9687 18.679 20.2329C16.6622 21.2898 14.2597 20.3914 13.2908 18.1931C12.9942 17.5379 12.9744 17.4005 12.9744 16.3753C12.9744 15.3924 13.0041 15.2022 13.2414 14.6526C13.795 13.3949 14.6947 12.5706 15.8712 12.2429C16.6622 12.021 16.9983 11.9999 17.6904 12.1584ZM48.4181 19.863V25.8872H46.7868H45.1555V19.863V13.8388H46.7868H48.4181V19.863ZM2.9098 15.7623C3.30527 16.2274 3.27561 16.7347 2.85048 17.0834C2.38581 17.4639 1.62453 17.02 1.62453 16.3753C1.62453 15.6566 2.47479 15.255 2.9098 15.7623ZM17.4333 15.7729C18.1155 16.407 17.4037 17.5062 16.5336 17.1574C16.4545 17.1151 16.3062 16.946 16.2271 16.7769C15.8119 15.9209 16.7511 15.1493 17.4333 15.7729ZM24.8187 24.9994C24.967 25.1896 25.2932 25.4433 25.5305 25.5701C25.9556 25.7921 25.9556 25.7921 25.8568 26.1831C25.659 26.9652 25.9556 27.9586 26.5884 28.6033C27.2211 29.2586 27.3002 29.2692 31.0176 29.2692C32.8664 29.2692 34.3791 29.3009 34.3791 29.3432C34.3791 29.3854 34.2901 29.7236 34.1714 30.1041C34.0528 30.4846 33.944 30.865 33.9243 30.939C33.8946 31.0447 33.0345 31.0659 29.8312 31.0447L25.7678 31.013L25.5008 30.1675C25.3525 29.7025 25.1153 29.1001 24.967 28.8359C24.6901 28.3391 23.7806 27.018 23.1972 26.2782L22.8809 25.8766L23.6125 25.084C24.2452 24.397 24.354 24.3124 24.443 24.471C24.5023 24.5661 24.6704 24.8092 24.8187 24.9994ZM12.6284 31.3301C13.103 31.8691 12.7371 32.7569 12.0352 32.7569C11.7386 32.7569 11.2443 32.2496 11.2443 31.9536C11.2443 31.7317 11.5112 31.2032 11.6595 31.1398C11.9956 30.9919 12.401 31.0764 12.6284 31.3301ZM33.865 33.4015C33.7859 34.5007 33.9836 34.4478 29.8312 34.4478C25.6788 34.4478 25.8765 34.5007 25.7974 33.4015L25.7579 32.7569H29.8312H33.9045L33.865 33.4015ZM5.90546 34.5535C5.95489 34.5535 6.08342 34.6592 6.20206 34.786C6.80515 35.4836 5.94501 36.625 5.23317 36.0649C4.85747 35.7689 4.73883 35.3568 4.92668 34.9974C5.08487 34.6804 5.49022 34.4267 5.68795 34.5007C5.76705 34.5324 5.86591 34.5535 5.90546 34.5535ZM33.4398 36.3079C33.6178 36.3819 33.8847 36.8892 33.8847 37.1429C33.8847 37.238 33.7562 37.4599 33.598 37.629L33.3113 37.9355H29.8114C27.2211 37.925 26.2819 37.8933 26.1632 37.7981C25.8963 37.5868 25.7579 37.2063 25.8271 36.8681C25.9556 36.2445 25.9754 36.2445 29.7916 36.2445C31.7097 36.2445 33.3508 36.2762 33.4398 36.3079ZM33.509 41.6874C34.033 42.7866 34.468 43.7589 34.4779 43.8434C34.4779 43.9491 31.4724 48.6522 30.7803 49.614C30.6419 49.8042 30.632 49.6774 30.632 48.1344V46.4434L31.0967 46.1263C31.7986 45.6401 32.1348 45.0483 32.1842 44.2134C32.2534 43.0297 31.7986 42.1313 30.8693 41.6769C29.6236 41.0533 28.1109 41.6557 27.5869 42.9874C27.409 43.4524 27.409 44.467 27.5869 44.932C27.7748 45.4182 28.2592 45.9889 28.6843 46.232L29.0403 46.4434V48.1238C29.0403 49.1807 29.0007 49.7725 28.9513 49.7197C28.892 49.6563 28.012 48.3246 26.9838 46.7604L25.1153 43.9069L26.0545 41.8988C26.5686 40.7891 27.0333 39.8273 27.0827 39.7534C27.1618 39.6582 27.8044 39.6265 29.8707 39.6477L32.55 39.6794L33.509 41.6874ZM30.375 43.3784C30.8891 43.9174 30.5233 44.8052 29.7916 44.8052C29.3764 44.8052 29.0403 44.4142 29.0403 43.9386C29.0403 43.5264 29.4357 43.1142 29.8312 43.1142C30.019 43.1142 30.2267 43.2093 30.375 43.3784Z" fill="white"/>
<path d="M38.7292 37.09V37.9355H44.3646H50V37.09V36.2445H44.3646H38.7292V37.09Z" fill="white"/>
<path d="M38.7292 40.5249V41.4232H44.3646H50V40.5249V39.6265H44.3646H38.7292V40.5249Z" fill="white"/>
<path d="M38.7292 43.9597V44.8052H44.3646H50V43.9597V43.1142H44.3646H38.7292V43.9597Z" fill="white"/>
<path d="M40.3111 47.4474V48.2929H41.102H41.8929V47.4474V46.6019H41.102H40.3111V47.4474Z" fill="white"/>
<path d="M43.5737 47.4474V48.2929H44.3646H45.1555V47.4474V46.6019H44.3646H43.5737V47.4474Z" fill="white"/>
<path d="M46.7374 47.4474V48.2929H47.5778H48.4181V47.4474V46.6019H47.5778H46.7374V47.4474Z" fill="white"/>
</svg>
