<svg width="12" height="12" viewBox="0 0 12 12" fill="none" xmlns="http://www.w3.org/2000/svg">
<path d="M2.79002 0.0375347C2.31907 0.129723 1.74971 0.406289 1.38185 0.71973C0.758601 1.24916 0.294678 2.07095 0.102548 2.9744C-0.000546479 3.46959 -0.0310061 4.22026 0.0345992 4.69965C0.205642 5.95341 0.871067 7.14396 2.16677 8.51362C2.6471 9.02198 2.98215 9.35385 4.34581 10.6735C5.18462 11.4874 5.60637 11.8772 5.6954 11.9246C5.87816 12.0247 6.12184 12.0247 6.3046 11.9272C6.48032 11.8298 8.97801 9.41707 9.82385 8.52416C11.1196 7.15713 11.7944 5.95341 11.9654 4.69965C12.031 4.22026 12.0005 3.46959 11.8975 2.9744C11.7053 2.07095 11.2414 1.24916 10.6181 0.71973C10.2409 0.398387 9.67624 0.12709 9.18655 0.0375347C8.92178 -0.0125113 8.38054 -0.0125113 8.11812 0.0375347C7.39177 0.179769 6.70994 0.632811 6.19682 1.32027C6.09607 1.45461 6.00937 1.56523 6 1.56523C5.99063 1.56523 5.90393 1.45461 5.80318 1.32027C5.29006 0.632811 4.60823 0.179769 3.88188 0.0375347C3.62883 -0.0098772 3.04307 -0.0098772 2.79002 0.0375347ZM3.96155 0.890938C4.18882 0.964688 4.5684 1.17541 4.74647 1.32554C4.96672 1.51255 5.26194 1.8576 5.42127 2.1131C5.50093 2.24216 5.59465 2.39493 5.6298 2.45024C5.80553 2.72944 6.19447 2.72944 6.3702 2.45024C6.40535 2.39493 6.49907 2.24216 6.57873 2.1131C6.73806 1.8576 7.03328 1.51255 7.25353 1.32554C7.43629 1.17277 7.81352 0.964688 8.05017 0.888304C8.21418 0.835625 8.28916 0.827723 8.65936 0.827723C9.12094 0.830357 9.27558 0.861964 9.63172 1.02264C10.4213 1.38349 11.0118 2.22899 11.2156 3.29048C11.2765 3.60919 11.2789 4.44679 11.218 4.76549C10.9954 5.92971 10.2948 6.97539 8.63124 8.63215C7.76666 9.49345 6.01171 11.166 5.98594 11.1555C5.9508 11.1397 3.91937 9.18265 3.36407 8.62688C1.69582 6.96222 1.00696 5.92971 0.782032 4.76549C0.721112 4.44679 0.723455 3.60919 0.784375 3.29048C1.02102 2.06569 1.74268 1.17014 2.71739 0.896206C2.97747 0.81982 3.0009 0.81982 3.41093 0.827723C3.71084 0.832991 3.82096 0.84616 3.96155 0.890938Z" fill="white"/>
</svg>
