<svg width="18" height="15" viewBox="0 0 18 15" fill="none" xmlns="http://www.w3.org/2000/svg">
<path d="M6.13477 1.24219C5.92383 1.32422 5.79375 1.43555 5.69883 1.61133C5.62852 1.7373 5.625 1.7959 5.625 3.28125C5.625 4.7666 5.62852 4.8252 5.69883 4.95117C5.7375 5.02441 5.81133 5.12109 5.86406 5.16797C5.99766 5.28516 6.27891 5.39062 6.46875 5.39062C6.65859 5.39062 6.93984 5.28516 7.07344 5.16797C7.12617 5.12109 7.2 5.02441 7.23867 4.95117C7.30898 4.8252 7.3125 4.76367 7.3125 3.69727V2.57812H11.8125H16.3125V7.5V12.4219H11.8125H7.3125V11.2998C7.3125 10.1836 7.3125 10.1807 7.22812 10.0342C6.91172 9.47461 6.02578 9.47461 5.70937 10.0342L5.625 10.1807V11.7188V13.2568L5.70937 13.4033C5.80781 13.5791 5.94141 13.6875 6.15234 13.7666C6.31055 13.8252 6.35273 13.8281 11.8125 13.8281C17.2723 13.8281 17.3145 13.8252 17.4727 13.7666C17.6836 13.6875 17.8172 13.5791 17.9156 13.4033L18 13.2568V7.5C18 1.77246 17.9965 1.74316 17.9262 1.61133C17.8312 1.43555 17.7012 1.32422 17.4902 1.24219L17.3145 1.17188H11.8125H6.31055L6.13477 1.24219Z" fill="#C4C4C4"/>
<path d="M3.04102 4.75781C2.90391 4.81348 2.56289 5.08008 1.47305 5.99414C0 7.23047 0 7.2334 0 7.5C0 7.7666 0 7.76953 1.47305 9.00586C2.96367 10.2568 3.04453 10.3125 3.375 10.3125C3.56484 10.3125 3.84609 10.207 3.97969 10.0898C4.11328 9.96973 4.21875 9.76172 4.21875 9.60938C4.21875 9.36914 4.1168 9.24902 3.46992 8.70703L2.86523 8.20312H7.83984H12.8145L12.9902 8.13281C13.6617 7.86914 13.6617 7.13086 12.9902 6.86719L12.8145 6.79688H7.83984H2.86523L3.46992 6.29004C4.1168 5.75098 4.21523 5.63086 4.21875 5.39062C4.21875 5.23242 4.0957 4.99805 3.95156 4.88672C3.69492 4.6875 3.34336 4.6377 3.04102 4.75781Z" fill="#C4C4C4"/>
</svg>
