<svg width="20" height="21" viewBox="0 0 20 21" fill="none" xmlns="http://www.w3.org/2000/svg">
<path d="M14.8242 0.717772C14.5078 0.787498 14.1797 0.94746 13.8906 1.16484C13.7617 1.26738 11.2148 3.90879 8.23438 7.04238L2.82031 12.7354L1.72266 16.2258C1.11719 18.1453 0.625 19.7695 0.625 19.8352C0.625 20.073 0.886719 20.3438 1.12109 20.3438C1.16016 20.3438 2.69531 19.8187 4.53125 19.1748L7.87109 18.0059L13.3828 12.2104C19.3906 5.90215 19.0586 6.27129 19.2617 5.57812C19.3359 5.33613 19.3516 5.17207 19.3516 4.81933C19.3516 4.4666 19.3359 4.30254 19.2617 4.06054C19.0859 3.45351 18.9805 3.30996 17.8945 2.16973C16.9336 1.15664 16.8828 1.11152 16.5586 0.94746C16.3711 0.853125 16.1016 0.750586 15.9531 0.717772C15.625 0.643944 15.1406 0.643944 14.8242 0.717772ZM15.9492 1.8457C16.2539 1.96465 16.418 2.11641 17.3086 3.05976C18.1406 3.9498 18.2578 4.12207 18.3125 4.57324C18.3867 5.19258 18.2227 5.62324 17.6953 6.17285L17.3438 6.54199L15.543 4.65527L13.7461 2.76855L14.0977 2.41172C14.293 2.21484 14.5273 2.00976 14.6172 1.95234C15.0078 1.71035 15.5039 1.67344 15.9492 1.8457ZM14.8164 5.44687L16.6016 7.32129L12.1094 12.0381L7.61719 16.7549L5.82031 14.8682L4.02344 12.9814L8.50391 8.27695C10.9727 5.68476 12.9961 3.56836 13.0078 3.56836C13.0195 3.56836 13.832 4.41328 14.8164 5.44687ZM5.09375 15.6639L6.65234 17.3004L4.34766 18.1043C3.07812 18.5473 2.02344 18.9082 2 18.9082C1.97656 18.9082 2.30078 17.8336 2.71875 16.517C3.54297 13.9248 3.50781 14.0273 3.52344 14.0273C3.53125 14.0273 4.23828 14.7615 5.09375 15.6639Z" fill="white"/>
</svg>
