<svg width="25" height="26" viewBox="0 0 25 26" fill="none" xmlns="http://www.w3.org/2000/svg">
<path d="M14.3559 3.14843C13.7406 3.28554 13.1645 3.77304 12.8764 4.40273C12.7299 4.72265 12.7201 4.78866 12.7201 5.28124C12.7201 5.77382 12.7299 5.83984 12.8715 6.1496C12.9691 6.35781 13.1498 6.62187 13.3451 6.84023L13.6674 7.19062L12.1342 8.78515L10.6059 10.3746L10.1518 10.2426C9.3461 10.0039 8.8041 9.93788 7.93496 9.96835C7.0707 9.99882 6.47988 10.1055 5.77676 10.3644C4.84902 10.6996 3.86758 11.309 3.18887 11.9691C2.87637 12.2738 2.79824 12.4414 2.85684 12.6801C2.87637 12.7766 3.63809 13.6043 5.14199 15.1734L7.39785 17.5195L5.72793 19.2613C4.81484 20.216 4.03848 21.0488 4.00918 21.1098C3.77969 21.582 4.24844 22.0695 4.70254 21.8309C4.76113 21.8004 5.56191 20.993 6.48477 20.0383L8.15469 18.3066L10.391 20.6273C11.6166 21.9019 12.6713 22.9684 12.7299 22.9988C13.0082 23.1461 13.2182 23.0293 13.6576 22.4859C14.102 21.9324 14.3363 21.5668 14.6342 20.9473C15.4643 19.2309 15.6498 17.2605 15.1566 15.4426L15.0248 14.9703L16.5531 13.3809L18.0863 11.7863L18.4232 12.1215C18.6332 12.3246 18.8871 12.5125 19.0873 12.6141C19.3852 12.7613 19.4486 12.7715 19.9223 12.7715C20.3959 12.7715 20.4594 12.7613 20.767 12.609C21.6361 12.1824 22.1342 11.2277 21.9779 10.3035C21.8559 9.5621 21.8705 9.58241 18.975 6.56093C17.5199 5.04257 16.2064 3.70195 16.0502 3.58007C15.8988 3.45819 15.6498 3.31093 15.5033 3.25507C15.1859 3.12812 14.6635 3.08241 14.3559 3.14843Z" fill="white"/>
</svg>
