<svg width="470" height="470" viewBox="0 0 470 470" fill="none" xmlns="http://www.w3.org/2000/svg">
<path d="M384.372 1.43794C379.672 2.93794 374.272 8.13794 298.272 84.1379C244.872 137.638 216.572 166.638 215.472 169.038C213.972 172.338 213.872 176.738 214.072 207.638L214.372 242.538L216.872 246.138C218.272 248.238 221.172 251.138 223.272 252.638L227.172 255.338L261.972 255.638C295.772 255.938 296.972 255.838 301.072 253.738C304.072 252.338 330.472 226.538 386.072 171.038C466.472 90.6379 466.772 90.3379 468.372 84.5379C469.772 79.6379 469.872 77.9379 468.872 73.5379C467.672 68.5379 466.472 67.2379 434.972 35.5379C405.272 5.63794 401.972 2.63794 397.472 1.33794C391.572 -0.462064 390.772 -0.462064 384.372 1.43794ZM350.172 146.138L282.372 213.838L269.372 213.638L256.372 213.338L256.072 200.338L255.772 187.438L323.572 119.638L391.372 51.8379L404.572 65.0379L417.872 78.3379L350.172 146.138Z" fill="white"/>
<path d="M11.7721 45.6378C7.87214 47.6378 5.57214 49.7378 3.37214 53.3378L0.372136 58.1378L0.072136 252.738C-0.127864 397.938 0.0721359 448.738 0.872136 452.738C2.57214 460.438 9.27214 467.138 16.9721 468.838C20.9721 469.638 71.7721 469.838 216.972 469.638L411.572 469.338L416.372 466.338C419.972 464.138 422.072 461.838 424.072 457.938L426.872 452.638V341.738C426.872 243.638 426.672 230.338 425.272 227.038C421.972 219.138 414.272 213.838 405.872 213.838C397.072 213.838 390.672 217.638 386.572 225.338L384.372 229.338L384.072 328.038L383.872 426.838H213.372H42.8721V256.338V85.8378L141.672 85.6378L240.372 85.3378L244.872 82.8378C251.572 79.0378 255.172 73.2378 255.672 65.4378C256.172 58.3378 254.272 53.4378 249.172 48.6378C242.772 42.5378 249.472 42.8378 127.972 42.8378H17.0721L11.7721 45.6378Z" fill="white"/>
</svg>
