<svg width="30" height="26" viewBox="0 0 30 26" fill="none" xmlns="http://www.w3.org/2000/svg">
<g clip-path="url(#clip0_5_303)">
<path d="M14.2676 0.0304699C14.1738 0.0406265 13.8867 0.0761719 13.6289 0.106642C12.1875 0.27422 10.459 0.98008 9.28711 1.87891C7.80468 3.01133 6.75586 4.64648 6.43945 6.32227C6.32226 6.93164 6.33984 8.30273 6.46875 8.86133C6.88476 10.6945 8.08008 12.3906 9.6914 13.4469L10.0898 13.7109L9.92578 13.7617C9.21679 13.9953 8.91211 14.1121 8.30859 14.3711C5.70703 15.5035 3.5918 17.2148 2.08594 19.3984C0.855468 21.1859 0.164062 23.1816 0.0234375 25.3906L-0.0175781 26H1.16016H2.34375V25.7512C2.34375 24.0297 3.16992 21.6531 4.27734 20.1906C5.98242 17.9309 8.26758 16.382 11.0508 15.5949C13.6992 14.8434 16.3008 14.8434 18.9492 15.5949C21.7324 16.382 24.0176 17.9309 25.7226 20.1906C26.8301 21.6531 27.6562 24.0297 27.6562 25.7512V26H28.8398H30.0176L29.9766 25.3906C29.8359 23.1816 29.1445 21.1859 27.9141 19.3984C26.4082 17.2148 24.293 15.5035 21.6914 14.3711C21.0879 14.1121 20.7832 13.9953 20.0742 13.7617L19.9101 13.7109L20.3086 13.4469C21.9199 12.3906 23.1152 10.6945 23.5312 8.86133C23.6601 8.30273 23.6777 6.93164 23.5605 6.32227C23.3086 4.98672 22.5293 3.56992 21.498 2.5543C20.2148 1.3 18.4101 0.416407 16.5293 0.121876C16.0781 0.0507812 14.584 -0.0101547 14.2676 0.0304699ZM15.9902 2.10742C19.4355 2.59492 21.791 5.4082 21.2402 8.37383C20.6777 11.3598 17.4316 13.4012 14.0098 12.9238C10.5644 12.4363 8.20898 9.62305 8.75976 6.65742C9.32226 3.67149 12.5684 1.63008 15.9902 2.10742Z" fill="white"/>
</g>
<defs>
<clipPath id="clip0_5_303">
<rect width="30" height="26" fill="white"/>
</clipPath>
</defs>
</svg>
