<svg width="20" height="20" viewBox="0 0 20 20" fill="none" xmlns="http://www.w3.org/2000/svg">
<path d="M6.8555 3.88672C5.14456 4.16407 3.78909 5.48829 3.49612 7.17579C3.4219 7.59375 3.4219 8.21485 3.49222 8.58594L3.5469 8.86719L3.44143 8.89063C1.82815 9.2461 0.734404 10.4961 0.636747 12.1094C0.535185 13.8164 1.81643 15.4063 3.50393 15.6641C3.68362 15.6914 5.82034 15.7031 10.0196 15.6953L16.2696 15.6836L16.5703 15.5977C17.8282 15.2383 18.8125 14.3008 19.1914 13.1055C19.7344 11.3828 18.9883 9.52344 17.4102 8.67188C16.8164 8.35157 16.0547 8.17188 15.4688 8.21875L15.1758 8.24219L15.086 8.00391C14.7032 7.01172 13.7696 6.25782 12.6914 6.07032C12.2813 6 11.8047 6.01563 11.4453 6.11329C11.3282 6.14454 11.2188 6.17188 11.2032 6.17188C11.1914 6.17188 11.1211 6.07032 11.0547 5.94532C10.2071 4.4375 8.53128 3.61329 6.8555 3.88672ZM8.28518 4.57422C9.34378 4.83985 10.1602 5.51563 10.6446 6.53125C10.8164 6.89454 10.9102 6.95313 11.1758 6.85547C11.6016 6.69922 11.7852 6.66407 12.168 6.66797C12.6289 6.66797 12.9571 6.7461 13.3321 6.94141C13.9414 7.26172 14.3946 7.82032 14.586 8.49219C14.625 8.61719 14.6953 8.76172 14.75 8.81641C14.8399 8.90625 14.8633 8.91016 15.0899 8.87891C15.4532 8.83204 16.0391 8.85157 16.3477 8.92188C16.5 8.95704 16.8008 9.07422 17.0157 9.17969C18.1211 9.71485 18.8125 10.9023 18.7383 12.1289C18.7071 12.6055 18.6328 12.8945 18.4375 13.3008C18.0508 14.1016 17.3985 14.668 16.5039 14.9688L16.2305 15.0586L9.96097 15.0703C3.80862 15.0781 3.68753 15.0781 3.37893 15C2.8555 14.8711 2.45315 14.6445 2.07034 14.2578C1.44143 13.6328 1.16409 12.8555 1.25393 11.9805C1.32815 11.2266 1.69143 10.5664 2.2969 10.082C2.7305 9.73438 3.22659 9.53907 3.8594 9.47266C4.05862 9.44922 4.11722 9.42579 4.18362 9.34375C4.27737 9.22657 4.27347 9.16797 4.14456 8.59375C3.81253 7.08594 4.57425 5.54297 6.00784 4.82422C6.66409 4.4961 7.57034 4.39844 8.28518 4.57422Z" fill="white"/>
</svg>
