<svg width="29" height="28" viewBox="0 0 29 28" fill="none" xmlns="http://www.w3.org/2000/svg">
<path d="M10.9899 0.0202923C8.1959 0.159067 5.48689 1.36363 3.42962 3.37864C1.75774 5.01618 0.618598 7.12001 0.199212 9.34595C-0.75291 14.3974 1.76908 19.3766 6.45601 21.7136C9.02901 22.9958 12.0894 23.29 14.8948 22.5185C15.8979 22.2409 17.3261 21.6136 18.0515 21.1196L18.3859 20.8976L21.8146 24.2393C24.909 27.2645 25.2774 27.6032 25.6118 27.7641C27.3403 28.5801 29.3013 27.1591 28.9612 25.3384C28.8252 24.6167 28.8309 24.6223 25.1074 20.9753L21.6616 17.6003L22.1263 16.7066C22.9084 15.1967 23.2655 13.9366 23.4072 12.2547C23.6565 9.20163 22.5344 6.04312 20.3751 3.74501C19.2813 2.57375 18.0855 1.71889 16.629 1.05833C15.7562 0.664207 15.4332 0.547636 14.6227 0.347801C13.4099 0.0480461 12.3501 -0.04632 10.9899 0.0202923ZM13.0018 3.81717C16.1472 4.32231 18.6976 6.65928 19.423 9.70122C20.0351 12.2602 19.2813 14.9358 17.4224 16.8287C15.8922 18.383 13.8973 19.2212 11.7153 19.2212C9.61275 19.2212 7.62916 18.4107 6.12163 16.9397C5.01083 15.8462 4.29107 14.5361 3.95102 12.9874C3.77533 12.177 3.77533 10.7726 3.95669 9.95656C4.42142 7.82498 5.63424 6.09307 7.47614 4.92737C8.41693 4.32786 9.42572 3.9726 10.7066 3.77276C11.0806 3.7117 12.5371 3.73945 13.0018 3.81717Z" fill="white" fill-opacity="0.5"/>
</svg>
