<svg width="20" height="20" viewBox="0 0 20 20" fill="none" xmlns="http://www.w3.org/2000/svg">
<g clip-path="url(#clip0_6_490)">
<path d="M7.42186 0.0703049C7.34764 0.105461 7.24608 0.195305 7.19921 0.269524C7.11327 0.394524 7.10936 0.441399 7.10936 1.10937C7.10936 1.49999 7.08983 1.93749 7.0703 2.08984C6.91014 3.23046 5.68749 3.92577 4.64842 3.47265C4.55077 3.42968 4.21483 3.24609 3.89842 3.06249C3.21092 2.66405 3.09764 2.62499 2.87108 2.71093C2.78123 2.74609 2.67186 2.8164 2.62889 2.86327C2.48436 3.02343 0.152327 7.11327 0.128889 7.24609C0.101546 7.41796 0.171858 7.62109 0.304671 7.74218C0.363265 7.79687 0.69139 8.0039 1.03514 8.19921C1.90623 8.70312 2.17577 8.98437 2.3242 9.55077C2.43358 9.98437 2.37498 10.4687 2.16405 10.8594C1.99217 11.1758 1.70702 11.4141 1.03514 11.8008C0.69139 11.9961 0.363265 12.2031 0.304671 12.2578C0.171858 12.3789 0.101546 12.582 0.128889 12.7539C0.152327 12.8867 2.48436 16.9726 2.62889 17.1367C2.67186 17.1836 2.78123 17.2539 2.87108 17.2891C3.09764 17.375 3.21092 17.3359 3.89842 16.9375C4.21483 16.7539 4.55858 16.5703 4.66014 16.5234C5.47264 16.1641 6.49608 16.5469 6.89452 17.3555C7.0703 17.7148 7.10936 17.9922 7.10936 18.8906C7.10936 19.5586 7.11327 19.6055 7.19921 19.7305C7.38671 20.0117 7.27342 20 10.0391 20H12.5195L12.6719 19.9101C12.9453 19.7539 12.9687 19.6641 12.9687 18.75C12.9687 18.1523 12.9844 17.8867 13.0273 17.7148C13.2539 16.8555 14.1289 16.2695 14.9883 16.4062C15.3203 16.4609 15.4219 16.5078 16.1797 16.9414C16.5156 17.1367 16.8398 17.3086 16.8945 17.3203C17.0469 17.3594 17.3047 17.2734 17.418 17.1484C17.5469 17.0117 19.9062 12.9062 19.9375 12.7695C19.9687 12.625 19.8906 12.3828 19.7734 12.2656C19.7148 12.2109 19.3945 12.0078 19.0625 11.8164C18.3516 11.4101 18.207 11.3008 18.0039 11.0195C17.5898 10.4453 17.5898 9.55468 18.0039 8.98046C18.207 8.69921 18.3516 8.58984 19.0625 8.18359C19.3945 7.99218 19.7148 7.78905 19.7734 7.73437C19.8906 7.61718 19.9687 7.37499 19.9375 7.23046C19.9062 7.09374 17.5469 2.98827 17.418 2.85155C17.3047 2.72655 17.0469 2.64062 16.8945 2.67968C16.8398 2.6914 16.5156 2.86327 16.1797 3.05859C15.4258 3.49218 15.3203 3.53905 15 3.58984C14.3125 3.69921 13.5234 3.31249 13.1875 2.69921C13.0039 2.35937 12.9687 2.12499 12.9687 1.24999C12.9687 0.33593 12.9453 0.246086 12.6719 0.0898361L12.5195 -7.62939e-06H10.0391C7.75389 -7.62939e-06 7.54686 0.00389862 7.42186 0.0703049ZM11.7969 1.6289C11.8008 2.3789 11.9219 2.87109 12.2305 3.3828C12.8086 4.33593 13.9883 4.91015 15.0703 4.76562C15.5312 4.70312 15.832 4.59765 16.3398 4.31249C16.582 4.17968 16.7891 4.08202 16.8047 4.09374C16.8476 4.13671 18.5625 7.11718 18.5469 7.12499C18.5391 7.1289 18.3516 7.23827 18.125 7.36718C17.8125 7.54296 17.6367 7.67577 17.3828 7.92968C17.0078 8.30468 16.8047 8.62499 16.6523 9.08202C16.5547 9.36718 16.5469 9.4453 16.5469 9.99999C16.5469 10.5547 16.5547 10.6328 16.6523 10.918C16.8867 11.6172 17.3711 12.1875 18.0859 12.6094C18.3125 12.7422 18.5117 12.8555 18.5312 12.8633C18.5586 12.8711 16.8828 15.8281 16.8047 15.9062C16.7891 15.918 16.582 15.8203 16.3398 15.6875C15.8359 15.4023 15.5351 15.2969 15.0781 15.2344C14.3398 15.1328 13.5039 15.3789 12.8906 15.875C12.5586 16.1406 12.2969 16.4687 12.1055 16.8555C11.8828 17.3086 11.832 17.5508 11.8086 18.2305L11.7851 18.8281H10.0391H8.29296L8.26952 18.2695C8.23827 17.6016 8.15233 17.2266 7.92968 16.8047C7.62499 16.2187 7.15233 15.7656 6.55467 15.4883C6.1328 15.293 5.79686 15.2226 5.31249 15.2226C4.6953 15.2226 4.30077 15.3476 3.54295 15.7891C3.39452 15.875 3.26952 15.9375 3.26561 15.9297C3.22655 15.8867 1.52342 12.9141 1.52342 12.8945C1.52342 12.8828 1.72264 12.7578 1.96092 12.6172C2.99608 12.0156 3.55467 11.0976 3.55467 9.99999C3.55467 8.90234 2.99608 7.98437 1.96092 7.3828C1.72264 7.24218 1.52342 7.11718 1.52342 7.10546C1.52342 7.08593 3.22655 4.11327 3.26561 4.0703C3.26952 4.06249 3.39452 4.12499 3.54295 4.21093C4.30467 4.65234 4.6953 4.77734 5.31249 4.77734C5.80858 4.77734 6.14842 4.69921 6.57811 4.49609C7.15233 4.22655 7.63671 3.76171 7.92968 3.1953C8.15233 2.77343 8.23827 2.39843 8.26952 1.73046L8.29296 1.17187H10.0469H11.7969V1.6289Z" fill="white"/>
<path d="M9.43746 5.9414C8.03511 6.14453 6.79683 7.11328 6.24996 8.42578C6.01168 8.99219 5.9648 9.2539 5.96089 9.96094C5.95699 10.4531 5.97261 10.6719 6.0273 10.8906C6.22652 11.707 6.63668 12.4258 7.21871 12.9766C9.22261 14.8672 12.4843 14.2812 13.6914 11.8164C14.0586 11.0703 14.1953 10.3398 14.1093 9.59375C14.0429 9.03906 13.9414 8.6875 13.6914 8.18359C12.9179 6.59765 11.1836 5.6875 9.43746 5.9414ZM10.8398 7.1875C11.3515 7.34765 11.707 7.5625 12.0898 7.94922C12.6875 8.54297 12.9453 9.16797 12.9453 10C12.9414 10.8359 12.6836 11.4609 12.0898 12.0508C11.6992 12.4414 11.3515 12.6523 10.8203 12.8164C10.4375 12.9375 9.68746 12.9453 9.29683 12.8359C8.30464 12.5625 7.53511 11.8203 7.22652 10.8398C7.10933 10.4687 7.07808 9.80859 7.16011 9.42578C7.28511 8.84765 7.53121 8.3789 7.92964 7.97265C8.35543 7.53906 8.84761 7.26172 9.43355 7.13281C9.81246 7.04687 10.4726 7.07422 10.8398 7.1875Z" fill="white"/>
</g>
<defs>
<clipPath id="clip0_6_490">
<rect width="20" height="20" fill="white"/>
</clipPath>
</defs>
</svg>
