<svg width="53" height="53" viewBox="0 0 53 53" fill="none" xmlns="http://www.w3.org/2000/svg">
<path d="M38.411 0.0598106C35.4766 0.588799 33.0814 2.39358 31.8475 4.98665C31.1528 6.45951 31.0283 7.01962 31.0283 8.84514V10.4217L25.4913 12.9733L19.9543 15.5249L19.1456 14.6536C17.4243 12.797 15.4128 11.6768 12.9139 11.1997C11.6489 10.9507 9.48177 11.0544 8.16492 11.4175C3.51966 12.6933 0.253461 16.7592 0.0149766 21.5823C-0.213139 25.8661 2.18207 29.9839 6.00819 31.9131C10.1869 34.0187 15.0499 33.3341 18.5442 30.1602L19.1041 29.652L23.2828 32.2036C26.8289 34.3714 27.4511 34.7863 27.4096 34.9626C27.3785 35.0767 27.2333 35.5642 27.0881 36.0517C26.1135 39.236 26.466 42.9596 28.0317 45.9054C29.6389 48.9237 32.3867 51.2886 35.5181 52.3362C37.0941 52.8548 38.0273 53 39.79 53C41.5527 53 42.4859 52.8548 44.062 52.3362C47.8363 51.0708 51.0714 47.845 52.326 44.0902C52.8548 42.4825 53 41.5594 53 39.7857C53 38.012 52.8548 37.0889 52.326 35.4812C51.0714 31.7264 47.8363 28.5006 44.062 27.2352C42.4756 26.7062 41.5527 26.561 39.79 26.5714C38.0688 26.5714 37.0941 26.7166 35.6425 27.1937C33.8072 27.7953 31.7541 29.0711 30.4269 30.4299L29.8152 31.0419L25.6572 28.4799C22.4533 26.5092 21.4889 25.8661 21.4993 25.7209C21.5097 25.6068 21.6134 25.1504 21.7378 24.694C22.0281 23.6049 22.1318 21.7068 21.9555 20.5347C21.8933 20.0576 21.8415 19.6323 21.8622 19.5908C21.883 19.539 24.3819 18.3565 27.4303 16.9563L32.9569 14.4047L33.5998 15.0374C35.5077 16.9459 38.0895 17.869 40.7025 17.5786C41.9053 17.4541 42.8592 17.1534 43.9894 16.5725C44.7567 16.1784 45.1093 15.8983 45.9595 15.0478C47.0483 13.9587 47.4941 13.3156 47.9918 12.0917C48.4792 10.8989 48.6347 9.86163 48.5725 8.41988C48.4999 6.94701 48.334 6.26244 47.7326 4.98665C46.3121 1.99943 43.4295 0.111671 40.1011 0.00794983C39.4479 -0.0127945 38.6806 0.00794983 38.411 0.0598106Z" fill="white"/>
</svg>
