<svg width="497" height="406" viewBox="0 0 497 406" fill="none" xmlns="http://www.w3.org/2000/svg">
<path d="M328.836 1.28371C294.436 7.08371 266.936 27.6837 251.936 58.8837C245.636 72.0837 242.736 84.7837 242.636 100.284C242.536 107.384 242.836 116.184 243.336 119.684L244.136 126.084L235.836 125.384C178.136 120.584 124.836 99.7837 79.3358 64.1837C65.5358 53.3837 54.6358 43.1837 43.3358 30.5837C38.0358 24.6837 33.3358 19.7837 32.9358 19.7837C31.0358 19.7837 23.7358 38.7837 21.4358 49.8837C19.2358 60.3837 19.2358 79.4837 21.2358 89.7837C25.9358 113.084 38.6358 134.484 56.4358 148.884C60.0358 151.784 62.9358 154.384 62.9358 154.784C62.9358 155.884 48.2358 153.984 40.3358 151.784C36.0358 150.684 29.5358 148.384 25.8358 146.684C22.1358 145.084 18.8358 143.784 18.5358 143.784C17.2358 143.784 20.4358 165.984 23.1358 174.784C25.7358 183.184 31.9358 195.584 37.6358 203.584C50.1358 221.184 70.7358 235.884 91.1358 241.884C95.5358 243.184 98.4358 244.484 97.7358 244.884C95.0358 246.584 78.8358 247.984 67.2358 247.584C59.5358 247.284 54.9358 247.484 54.9358 248.084C54.9358 250.384 64.2358 268.484 68.4358 274.384C84.8358 297.284 113.936 314.184 141.036 316.384C145.436 316.784 148.836 317.384 148.736 317.884C148.236 319.084 136.936 327.084 127.736 332.584C105.436 346.084 79.0358 355.484 52.9358 359.284C43.7358 360.584 20.1358 361.484 10.4358 360.884C4.93578 360.484 0.235776 360.284 0.035776 360.384C-1.16422 361.284 28.1358 376.884 40.9358 382.284C107.836 410.384 182.936 413.184 251.836 390.184C318.236 367.984 372.036 322.684 408.236 258.384C424.636 229.284 438.636 187.984 443.436 154.284C445.436 139.784 446.936 115.084 446.236 107.384L445.736 101.284L453.536 95.1837C465.736 85.7837 471.536 80.1837 481.336 68.6837C490.536 57.9837 497.536 48.7837 496.536 48.7837C496.236 48.7837 492.736 50.0837 488.736 51.6837C476.036 56.5837 462.936 59.9837 443.436 63.2837C438.836 63.9837 438.636 64.2837 449.336 56.2837C458.336 49.4837 468.336 38.3837 473.936 28.7837C478.136 21.5837 483.336 9.78371 482.636 9.08371C482.336 8.88371 478.136 10.6837 473.336 13.1837C457.036 21.3837 439.936 27.5837 424.736 30.8837L419.036 32.0837L413.736 27.2837C390.236 6.08371 358.236 -3.71629 328.836 1.28371Z" fill="white"/>
</svg>
