<svg width="12" height="7" viewBox="0 0 12 7" fill="none" xmlns="http://www.w3.org/2000/svg">
<path d="M5.64844 0.00986433C3.90234 0.13201 2.00859 1.17346 0.405469 2.89635C0.046875 3.28207 0 3.35064 0 3.50279C0 3.65494 0.046875 3.72351 0.405469 4.10923C1.72734 5.52997 3.31172 6.52856 4.77422 6.865C5.19609 6.96143 5.55469 7 6 7C6.45469 7 6.81563 6.95928 7.25391 6.85643C8.70938 6.5157 10.2797 5.5214 11.5945 4.10923C11.9531 3.72351 12 3.65494 12 3.50279C12 3.35064 11.9531 3.28207 11.5945 2.89635C10.2727 1.47561 8.68828 0.477016 7.22578 0.140581C6.72188 0.0248647 6.13125 -0.0222793 5.64844 0.00986433ZM6.64453 0.792022C7.87031 0.991312 9.12188 1.66204 10.3383 2.77206C10.7367 3.1385 11.0625 3.46636 11.0625 3.50279C11.0625 3.56922 10.1063 4.46924 9.71484 4.76924C8.67422 5.56854 7.65703 6.04641 6.63281 6.21784C6.35859 6.26284 5.69766 6.26713 5.42578 6.22641C4.29375 6.05712 3.12891 5.47854 1.9875 4.52281C1.58203 4.18423 0.9375 3.55636 0.9375 3.50279C0.9375 3.43636 1.89375 2.53634 2.28516 2.23634C3.42656 1.35989 4.55625 0.862738 5.66016 0.751307C5.84063 0.734164 6.43594 0.757736 6.64453 0.792022Z" fill="white"/>
<path d="M5.69998 1.3406C5.04139 1.41132 4.39452 1.77561 4.01717 2.29419C3.38905 3.15564 3.51327 4.30852 4.31717 5.04139C5.2453 5.89212 6.75467 5.89212 7.6828 5.04139C8.61327 4.1928 8.61327 2.81277 7.6828 1.96418C7.30077 1.61275 6.80623 1.39632 6.26952 1.33846C6.0328 1.31489 5.94373 1.31489 5.69998 1.3406ZM6.31639 2.09919C6.4078 2.11633 6.58123 2.17633 6.70311 2.2299C7.22108 2.46562 7.5703 2.97563 7.5703 3.50279C7.5703 4.02994 7.22108 4.53995 6.70311 4.77567C6.2203 4.9921 5.77967 4.9921 5.29686 4.77567C4.77889 4.53995 4.42967 4.02994 4.42967 3.50279C4.42967 3.29064 4.48827 3.08492 4.6078 2.85992C4.91952 2.28562 5.62967 1.96847 6.31639 2.09919Z" fill="white"/>
</svg>
