<svg width="820" height="782" viewBox="0 0 820 782" fill="none" xmlns="http://www.w3.org/2000/svg">
<path d="M1.41842 780.253C1.36064 779.871 -4.22783 741.519 7.18524 709.666C18.5983 677.814 42.9604 663.767 43.2051 663.628L44.3186 663L44.5816 664.747C44.6394 665.129 50.2278 703.481 38.8148 735.334C27.4023 767.186 3.03966 781.233 2.79488 781.372L1.68093 782L1.41842 780.253ZM42.7916 667.262C37.9117 670.421 18.652 684.247 9.01273 711.149C-0.627527 738.054 2.28098 769.87 3.20841 777.738C8.08631 774.587 27.3384 760.782 36.9873 733.851C46.627 706.948 43.7195 675.134 42.7916 667.262V667.262Z" fill="#F1F1F1"/>
<path d="M30.3045 724.063C9.87001 742.723 2 779.788 2 779.788C2 779.788 27.2609 786.598 47.6955 767.937C68.13 749.277 76 712.212 76 712.212C76 712.212 50.7391 705.402 30.3045 724.063Z" fill="#F1F1F1"/>
<path d="M340.792 426.105C341.109 423.674 341.063 421.17 340.658 418.769C340.253 416.368 339.498 414.128 338.447 412.207C337.396 410.286 336.074 408.73 334.574 407.65C333.075 406.57 331.434 405.991 329.767 405.955L320.14 370L304 373.359L318.076 423.851C318.22 428.013 319.387 431.952 321.356 434.921C323.325 437.891 325.96 439.684 328.76 439.962C331.56 440.24 334.331 438.983 336.549 436.429C338.767 433.875 340.276 430.201 340.792 426.105V426.105Z" fill="#9F616A"/>
<path d="M311.33 414L306.444 396.287L276 308.179L277.655 145.147L277.973 145.083C297.454 141.169 310.634 277.638 311.186 283.45L330.421 383.471L335 405.517L311.33 414Z" fill="#248C45"/>
<path d="M264.003 757L278.909 756.998L286 671L264 671.002L264.003 757Z" fill="#9F616A"/>
<path d="M260 750.002L289.316 750H289.317C294.272 750 299.024 752.959 302.528 758.226C306.031 763.493 308 770.636 308 778.085V778.997L260.001 779L260 750.002Z" fill="#2F2E41"/>
<path d="M127 723.147L139.25 736L178 670.971L159.922 652L127 723.147Z" fill="#9F616A"/>
<path d="M126.007 714L150.014 739.178L150.015 739.179C154.072 743.435 156.84 749.943 157.709 757.27C158.579 764.597 157.479 772.145 154.652 778.252L154.306 779L115 737.775L126.007 714Z" fill="#2F2E41"/>
<path d="M255.633 737L254.988 574.312L245.604 472.015L228.108 561.975L228.074 562.049L164.671 700.813L140 681.969L140.135 681.485C141.643 676.079 177.17 549.109 186.719 549.109C187.553 549.197 188.388 548.978 189.154 548.471C189.919 547.964 190.591 547.184 191.112 546.198C193.915 540.556 191.632 528.584 191.609 528.464C188.875 511.376 195.749 505.556 197.118 504.584L200.8 390L201.181 390.04L301 400.595L296.812 543.856L287.804 731.556L287.495 731.609L255.633 737Z" fill="#2F2E41"/>
<path d="M303 426L302.567 425.947L195 412.888L195.266 359.285L200.53 219.324L200.56 219.227L222.001 149.123L237.2 138.758L259.375 137L259.429 137.02L279.666 144.572L300.718 372.174L303 426Z" fill="#248C45"/>
<path d="M262.699 118.712C276.425 107.412 281.47 81.4938 273.966 60.822C266.463 40.1503 249.253 32.5531 235.526 43.8534C221.8 55.1536 216.756 81.072 224.259 101.744C231.763 122.416 248.973 130.013 262.699 118.712Z" fill="#9F616A"/>
<path d="M220.718 91.5263V74.9054C220.718 74.9054 211.786 59.1192 221.611 55.1426C221.611 55.1426 224.29 15.3768 247.513 33.9342C247.513 33.9342 279.667 25.981 276.094 53.8171C276.094 53.8171 284.133 46.55 281.453 65.1073L276.271 95C276.271 95 278.774 75.2538 270.735 72.6026L266.269 68.626C266.269 68.626 253.765 87.1834 235.008 64.6495C235.008 64.6495 226.97 61.7703 227.863 73.7C228.756 85.6298 220.718 91.5263 220.718 91.5263Z" fill="#2F2E41"/>
<path d="M245.999 385.959C246.017 383.47 245.674 381.006 244.995 378.74C244.315 376.473 243.316 374.46 242.066 372.841C240.817 371.223 239.349 370.039 237.764 369.372C236.18 368.705 234.518 368.572 232.896 368.983L219.265 336L204 343.647L223.682 389.816C224.318 393.894 225.921 397.478 228.186 399.887C230.451 402.297 233.222 403.365 235.973 402.889C238.724 402.414 241.264 400.428 243.112 397.307C244.96 394.187 245.987 390.149 245.999 385.959V385.959Z" fill="#9F616A"/>
<path d="M210.771 375L186 299.657L186.022 299.474C186.122 298.64 196.093 215.698 203.719 185.211C211.394 154.531 221.899 148.371 222.342 148.124L222.564 148L231.983 161.535L218.935 292.005L233 354.929L210.771 375Z" fill="#248C45"/>
<path d="M820 0H772V72H820V0Z" fill="#F1F1F1"/>
<path d="M446 280H399V352H446V280Z" fill="#F1F1F1"/>
<path d="M425 320H803V32H425V320Z" fill="white"/>
<path d="M806 325H422V28H806V325ZM428.233 315.626H799.767V37.3736H428.233V315.626Z" fill="#E5E5E5"/>
<path d="M761 133H471V148H761V133Z" fill="#E5E5E5"/>
<path d="M761 169H471V183H761V169Z" fill="#E5E5E5"/>
<path d="M761 220H707V233H761V220Z" fill="#248C45"/>
</svg>
