<svg width="562" height="611" viewBox="0 0 562 611" fill="none" xmlns="http://www.w3.org/2000/svg">
<g clip-path="url(#clip0_77_3)">
<path d="M358.452 136.964H328.55V421.399C328.55 425.862 327.762 430.281 326.231 434.404C324.701 438.527 322.457 442.273 319.629 445.429C316.8 448.584 313.443 451.088 309.747 452.795C306.052 454.503 302.091 455.382 298.091 455.382H69.4727V455.707C69.4726 460.17 70.2605 464.589 71.7911 468.712C73.3218 472.835 75.5654 476.581 78.3938 479.737C81.2221 482.893 84.5799 485.396 88.2753 487.104C91.9707 488.811 95.9314 489.69 99.9313 489.69H358.452C362.452 489.69 366.413 488.811 370.108 487.104C373.804 485.396 377.162 482.893 379.99 479.737C382.818 476.581 385.062 472.835 386.593 468.712C388.123 464.589 388.911 460.17 388.911 455.707V170.947C388.911 161.934 385.702 153.291 379.99 146.917C374.278 140.544 366.531 136.964 358.452 136.964Z" fill="#F2F2F2"/>
<path d="M500.205 588.976C500.734 589.003 501.259 588.848 501.706 588.531C502.154 588.215 502.504 587.753 502.708 587.207C502.913 586.662 502.962 586.059 502.849 585.482C502.736 584.904 502.467 584.379 502.078 583.978L501.901 583.192C501.924 583.129 501.948 583.066 501.971 583.003C502.505 581.598 503.398 580.4 504.54 579.559C505.682 578.719 507.021 578.273 508.389 578.279C509.757 578.285 511.092 578.741 512.229 579.591C513.365 580.441 514.25 581.647 514.774 583.057C516.868 588.683 519.534 594.32 520.191 600.269C520.48 602.899 520.358 605.565 519.83 608.148C524.748 596.178 527.302 583.169 527.319 570.001C527.32 566.697 527.155 563.395 526.826 560.112C526.554 557.42 526.176 554.747 525.693 552.093C523.057 537.695 517.397 524.2 509.179 512.716C505.201 510.294 501.984 506.571 499.962 502.046C499.229 500.42 498.711 498.684 498.424 496.892C498.873 496.958 500.116 489.334 499.778 488.866C500.403 487.807 501.522 487.281 502.205 486.248C505.602 481.11 510.281 482.007 512.724 488.989C517.943 491.928 517.994 496.801 514.791 501.488C512.754 504.47 512.474 508.505 510.687 511.698C510.871 511.961 511.062 512.215 511.246 512.478C514.607 517.301 517.537 522.479 519.994 527.94C519.396 521.823 520.109 515.634 522.074 509.884C524.065 504.525 527.797 500.012 531.083 495.38C531.952 494.135 533.132 493.206 534.475 492.71C535.817 492.214 537.261 492.173 538.624 492.592C539.988 493.011 541.209 493.872 542.134 495.066C543.059 496.259 543.645 497.732 543.82 499.297C543.827 499.366 543.834 499.434 543.84 499.502C543.352 499.81 542.874 500.136 542.407 500.481C541.819 500.918 541.364 501.544 541.101 502.275C540.838 503.007 540.779 503.81 540.931 504.579C541.084 505.348 541.442 506.048 541.957 506.587C542.473 507.126 543.122 507.478 543.82 507.599L543.891 507.611C543.718 509.574 543.41 511.519 542.972 513.43C547.188 531.62 538.086 538.246 525.09 538.543C524.803 538.708 524.523 538.872 524.236 539.028C526.704 546.83 528.252 554.958 528.841 563.206C529.175 568.072 529.155 572.96 528.782 577.823L528.804 577.65C529.746 572.243 532.331 567.364 536.124 563.838C541.756 558.675 549.714 556.774 555.79 552.625C556.436 552.162 557.187 551.915 557.954 551.913C558.722 551.911 559.474 552.154 560.122 552.613C560.769 553.072 561.286 553.728 561.611 554.504C561.935 555.28 562.054 556.144 561.953 556.992L561.928 557.174C561.022 557.585 560.14 558.059 559.287 558.593C558.799 558.901 558.322 559.227 557.854 559.572C557.267 560.009 556.812 560.635 556.548 561.366C556.285 562.098 556.226 562.901 556.379 563.67C556.532 564.439 556.889 565.139 557.405 565.678C557.92 566.217 558.569 566.57 559.268 566.69L559.339 566.702C559.391 566.71 559.435 566.718 559.486 566.727C557.938 570.85 555.766 574.645 553.064 577.946C550.428 593.825 539.106 595.332 526.995 590.708H526.987C525.659 597.15 523.733 603.421 521.242 609.42H500.719C500.646 609.165 500.58 608.903 500.513 608.648C502.413 608.782 504.32 608.655 506.192 608.271C504.67 606.186 503.147 604.085 501.624 602.001C501.59 601.962 501.558 601.921 501.528 601.878C500.756 600.811 499.976 599.752 499.204 598.685L499.204 598.684C499.162 595.413 499.499 592.151 500.204 588.976L500.205 588.976Z" fill="#F2F2F2"/>
<path d="M274.16 98.273C274.909 99.5396 275.896 100.609 277.052 101.409C278.209 102.208 279.507 102.717 280.857 102.902C282.207 103.086 283.577 102.941 284.872 102.477C286.167 102.012 287.356 101.239 288.357 100.212L331.026 121.69L339.252 109.983L288.407 84.8864C286.731 83.1352 284.538 82.1307 282.243 82.0631C279.948 81.9954 277.71 82.8695 275.954 84.5195C274.198 86.1696 273.045 88.4811 272.715 91.016C272.384 93.5508 272.898 96.1329 274.16 98.273H274.16Z" fill="#A0616A"/>
<path d="M457.275 111.666L461.507 138.421C461.704 139.67 461.666 140.95 461.393 142.181C461.121 143.411 460.621 144.565 459.926 145.567C459.23 146.569 458.354 147.398 457.355 148C456.355 148.603 455.254 148.965 454.121 149.065L382.213 155.374L297.688 113.168L307.783 91.7857L381.159 117.71L457.275 111.666Z" fill="#248C45"/>
<path d="M288.98 92.4907H30.4587C13.6368 92.4907 0 107.705 0 126.474V411.234C0 430.002 13.6368 445.217 30.4587 445.217H288.98C305.802 445.217 319.438 430.002 319.438 411.234V126.474C319.438 107.705 305.802 92.4907 288.98 92.4907Z" fill="#F2F2F2"/>
<path d="M30.459 99.4792C27.2817 99.4792 24.1355 100.177 21.2 101.534C18.2646 102.891 15.5974 104.879 13.3507 107.386C11.104 109.892 9.32176 112.868 8.10586 116.143C6.88996 119.418 6.26416 122.929 6.26416 126.473V411.234C6.26416 418.393 8.81324 425.26 13.3507 430.322C17.8881 435.384 24.0421 438.228 30.459 438.228H195.453C210.913 438.228 226.221 434.831 240.503 428.231C254.786 421.63 267.763 411.955 278.695 399.759C289.626 387.563 298.297 373.084 304.213 357.149C310.129 341.214 313.174 324.134 313.174 306.886V126.473C313.174 122.929 312.549 119.418 311.333 116.143C310.117 112.868 308.335 109.892 306.088 107.386C303.841 104.879 301.174 102.891 298.239 101.534C295.303 100.177 292.157 99.4792 288.98 99.4792H30.459Z" fill="white"/>
<path d="M231.988 185.899H86.8855C85.554 185.899 84.2771 185.309 83.3356 184.259C82.3942 183.208 81.8652 181.784 81.8652 180.298C81.8652 178.813 82.3942 177.388 83.3356 176.337C84.2771 175.287 85.554 174.697 86.8855 174.697H231.988C233.319 174.697 234.596 175.287 235.538 176.337C236.479 177.388 237.008 178.813 237.008 180.298C237.008 181.784 236.479 183.208 235.538 184.259C234.596 185.309 233.319 185.899 231.988 185.899Z" fill="#F2F2F2"/>
<path d="M231.988 305.342H86.8855C85.554 305.342 84.2771 304.752 83.3356 303.702C82.3942 302.651 81.8652 301.227 81.8652 299.741C81.8652 298.256 82.3942 296.831 83.3356 295.781C84.2771 294.73 85.554 294.14 86.8855 294.14H231.988C233.319 294.14 234.596 294.73 235.538 295.781C236.479 296.831 237.008 298.256 237.008 299.741C237.008 301.227 236.479 302.651 235.538 303.702C234.596 304.752 233.319 305.342 231.988 305.342Z" fill="#F2F2F2"/>
<path d="M290.911 245.66H27.9622C26.6307 245.66 25.3538 245.07 24.4123 244.019C23.4708 242.969 22.9419 241.544 22.9419 240.059C22.9419 238.573 23.4708 237.149 24.4123 236.098C25.3538 235.048 26.6307 234.458 27.9622 234.458H290.911C292.242 234.458 293.519 235.048 294.46 236.098C295.402 237.149 295.931 238.573 295.931 240.059C295.931 241.544 295.402 242.969 294.46 244.019C293.519 245.07 292.242 245.66 290.911 245.66Z" fill="#F2F2F2"/>
<path d="M448.19 229.594L421.996 291.857L522.762 280.47L501.727 220.699L448.19 229.594Z" fill="#A0616A"/>
<path d="M471.617 587.457L462.063 587.366L457.834 545.293L471.934 545.427L471.617 587.457Z" fill="#A0616A"/>
<path d="M441.015 604.406C441.006 605.67 441.447 606.886 442.241 607.787C443.035 608.688 444.117 609.201 445.25 609.214L464.245 609.391L467.57 601.87L468.791 609.429L475.959 609.501L474.149 582.542L471.655 582.357L461.484 581.575L458.203 581.329L458.145 588.957L442.886 600.504C442.315 600.937 441.846 601.519 441.52 602.198C441.194 602.878 441.021 603.636 441.015 604.406Z" fill="#2F2E41"/>
<path d="M365.888 587.505L356.779 584.286L363.817 542.685L377.26 547.433L365.888 587.505Z" fill="#A0616A"/>
<path d="M332.173 593.675C331.832 594.88 331.934 596.187 332.455 597.308C332.977 598.43 333.876 599.275 334.955 599.658L353.065 606.054L358.224 599.956L357.401 607.581L364.233 610L369.603 583.637L367.268 582.643L357.752 578.561L354.68 577.251L352.616 584.523L334.989 590.559C334.329 590.785 333.728 591.187 333.237 591.73C332.747 592.273 332.381 592.94 332.173 593.675Z" fill="#2F2E41"/>
<path d="M518.172 262.961L426.552 281.691C426.552 281.691 411.856 293.956 415.787 298.348C419.718 302.741 420.328 302.06 417.745 304.942C415.163 307.823 409.578 311.675 409.523 314.197C409.468 316.718 368.468 429.808 368.468 429.808C368.468 429.808 373.023 427.266 369.607 431.078C366.19 434.89 366.19 438.04 366.19 438.04L350.246 558.146L376.14 559.846L401.496 450.349L458.053 348.055C458.053 348.055 463.664 439.275 463.9 445.342C464.135 451.409 467.552 443.785 464.135 451.409C460.718 459.033 458.441 453.95 460.718 459.033C462.996 464.116 452.513 567.592 452.513 567.592H476.148L526.841 353.114C526.841 353.114 544.876 291.797 518.172 262.961Z" fill="#2F2E41"/>
<path d="M491.182 91.4051L454.481 87.1505L444.972 100.924L433.895 107.506C429.208 110.292 425.338 114.525 422.75 119.699C420.162 124.873 418.964 130.77 419.301 136.684L432.246 220.699C432.246 220.699 421.311 248.17 428.829 255.007C436.347 261.845 423.017 278.778 439.079 270.255C455.142 261.733 524.496 271.526 524.496 271.526L509.691 224.511L520.751 178.313L521.968 139.576C522.196 132.337 520.27 125.218 516.492 119.328C512.714 113.438 507.296 109.108 501.081 107.013L499.535 106.491L491.182 91.4051Z" fill="#248C45"/>
<path d="M541.708 60.014C541.949 71.5555 538.083 82.7311 532.529 92.547C530.879 86.8166 527.912 81.6012 524.818 76.6295C526.378 87.3847 524.717 98.4136 520.092 108.009C519.929 108.14 519.76 108.26 519.586 108.371C515.059 111.41 509.32 112.64 504.423 110.446C514.541 98.277 515.829 78.115 507.346 64.4658C504.944 60.5928 501.838 57.1674 500.35 52.7598C498.001 45.7272 500.259 37.9842 501.683 30.652C503.015 23.828 503.248 15.7073 499.145 10.7062C499.583 10.0073 500.18 9.45095 500.875 9.0942C501.569 8.73746 502.336 8.59313 503.097 8.67598C505.627 9.07471 507.469 11.5282 508.642 14.0551C509.814 16.582 510.588 19.3826 512.223 21.5652C515.25 25.6505 520.405 26.6163 524.749 28.7693C535.269 33.9976 541.456 47.1715 541.708 60.014Z" fill="#2F2E41"/>
<path d="M270.659 609.488C270.659 609.687 270.693 609.884 270.761 610.067C270.829 610.251 270.929 610.418 271.055 610.558C271.181 610.699 271.331 610.81 271.495 610.886C271.66 610.962 271.836 611.001 272.015 611H560.485C560.844 611 561.189 610.841 561.443 610.557C561.697 610.274 561.84 609.889 561.84 609.488C561.84 609.087 561.697 608.702 561.443 608.419C561.189 608.135 560.844 607.976 560.485 607.976H272.015C271.836 607.975 271.66 608.014 271.495 608.09C271.331 608.165 271.181 608.277 271.055 608.417C270.929 608.558 270.829 608.725 270.761 608.909C270.693 609.092 270.659 609.289 270.659 609.488Z" fill="#CCCCCC"/>
<path d="M543.98 327.513C549.641 327.513 554.23 322.393 554.23 316.077C554.23 309.761 549.641 304.641 543.98 304.641C538.319 304.641 533.729 309.761 533.729 316.077C533.729 322.393 538.319 327.513 543.98 327.513Z" fill="#248C45"/>
<path d="M453.15 53.415C453.752 51.0674 449.608 65.4183 451.607 65.6773C460.715 66.843 473.217 72.9115 479.56 75.7425C479.845 75.7055 480.131 75.6685 480.408 75.6223C481.089 75.539 481.753 75.4187 482.408 75.28C497.178 72.1621 502.858 46.8485 502.858 46.6173C502.858 45.4793 500.41 14.2241 496.553 13.7615C495.54 13.6389 494.522 13.5771 493.504 13.5765H483.934C481.954 13.1004 479.947 12.7758 477.927 12.605H477.91C458.646 10.9674 443.456 24.0681 444.875 40.0091C444.884 40.0276 444.901 40.0461 444.909 40.0646C445.321 40.7493 445.682 41.3969 446.001 42.0168C446.312 42.5997 446.573 43.1547 446.799 43.6821C448.555 47.7529 444.042 52.8754 447.035 53.8315C451.015 55.1031 436.566 96.899 452.321 96.899C444.657 99.3301 451.492 59.8914 453.15 53.415Z" fill="#2F2E41"/>
<path d="M470.348 77.9391C482.861 77.9391 493.004 66.6217 493.004 52.661C493.004 38.7002 482.861 27.3828 470.348 27.3828C457.835 27.3828 447.691 38.7002 447.691 52.661C447.691 66.6217 457.835 77.9391 470.348 77.9391Z" fill="#A0616A"/>
<path d="M444.875 41.3876C445.254 41.6096 445.623 41.8131 446.001 42.0167C446.396 42.2295 446.791 42.4423 447.186 42.6366C454.773 46.4761 460.948 46.9017 464.695 41.3876C464.795 38.4862 465.379 35.631 466.417 32.9683C466.234 35.9439 466.937 38.9037 468.417 41.3876H475.961C483.733 47.1422 487.723 47.7436 482.33 66.6359C480.826 71.9003 474.846 102.533 477.198 107.076C477.879 106.993 485.119 73.4401 485.774 73.3013C500.544 70.1835 509.929 43.0344 508.727 41.4986C508.733 37.1312 507.833 32.8215 506.097 28.9068C503.902 23.9471 500.479 19.7927 496.234 16.9348C493.704 15.5659 491.066 14.4603 488.353 13.6319C488.286 13.6134 488.227 13.5948 488.16 13.5764C487.328 13.3266 486.48 13.0953 485.631 12.901C483.878 12.488 482.105 12.1883 480.322 12.0036C480.195 11.9943 480.07 11.985 479.952 11.985C479.24 11.9869 478.541 12.2009 477.927 12.6049C477.919 12.6049 477.919 12.6141 477.91 12.6141C477.472 12.8999 477.089 13.2805 476.785 13.7336C476.248 14.4959 475.958 15.4381 475.961 16.4074H467.56C467.249 16.4074 466.938 16.4167 466.627 16.4351C461.02 16.6489 455.686 19.1896 451.669 23.56C447.652 27.9303 445.242 33.8158 444.909 40.0646C444.884 40.5086 444.875 40.9434 444.875 41.3876Z" fill="#2F2E41"/>
<path d="M494.413 33.3068C502.656 33.3068 509.339 25.8508 509.339 16.6534C509.339 7.45598 502.656 0 494.413 0C486.169 0 479.486 7.45598 479.486 16.6534C479.486 25.8508 486.169 33.3068 494.413 33.3068Z" fill="#2F2E41"/>
<path d="M544.095 320.792C544.823 319.511 545.293 318.068 545.473 316.563C545.652 315.059 545.537 313.529 545.134 312.08C544.732 310.63 544.052 309.295 543.141 308.168C542.231 307.04 541.112 306.147 539.862 305.549L539.936 253.323L526.993 249.748L527.312 311.779C526.567 314.202 526.644 316.846 527.529 319.209C528.415 321.573 530.046 323.492 532.115 324.603C534.184 325.714 536.546 325.939 538.754 325.237C540.962 324.535 542.862 322.953 544.095 320.792V320.792Z" fill="#A0616A"/>
<path d="M480.002 128.944L500.143 113.673C501.083 112.96 502.145 112.475 503.263 112.248C504.381 112.021 505.529 112.057 506.633 112.354C507.737 112.651 508.774 113.202 509.676 113.973C510.578 114.743 511.326 115.716 511.871 116.828L546.498 187.424L546.63 290.743L525.012 289.231L516.137 203.932L480.002 128.944Z" fill="#248C45"/>
<path d="M325.32 363.256H110.069C105.387 363.256 100.897 365.331 97.5864 369.025C94.2758 372.719 92.416 377.728 92.416 382.952C92.416 388.175 94.2758 393.185 97.5864 396.879C100.897 400.572 105.387 402.647 110.069 402.647H325.32C330.002 402.647 334.492 400.572 337.802 396.879C341.113 393.185 342.973 388.175 342.973 382.952C342.973 377.728 341.113 372.719 337.802 369.025C334.492 365.331 330.002 363.256 325.32 363.256Z" fill="white"/>
<path d="M325.32 403.918H110.069C105.085 403.918 100.305 401.709 96.7813 397.777C93.2572 393.845 91.2773 388.512 91.2773 382.952C91.2773 377.391 93.2572 372.058 96.7813 368.127C100.305 364.195 105.085 361.986 110.069 361.986H325.32C330.304 361.986 335.084 364.195 338.608 368.127C342.132 372.058 344.112 377.391 344.112 382.952C344.112 388.512 342.132 393.845 338.608 397.777C335.084 401.709 330.304 403.918 325.32 403.918ZM110.069 364.527C105.689 364.527 101.489 366.468 98.392 369.924C95.295 373.379 93.5551 378.065 93.5551 382.952C93.5551 387.838 95.295 392.525 98.392 395.98C101.489 399.435 105.689 401.377 110.069 401.377H325.32C329.7 401.377 333.9 399.435 336.997 395.98C340.094 392.525 341.834 387.838 341.834 382.952C341.834 378.065 340.094 373.379 336.997 369.924C333.9 366.468 329.7 364.527 325.32 364.527H110.069Z" fill="#248C45"/>
<path d="M338.013 449.208H243.022C241.69 449.208 240.413 448.618 239.472 447.568C238.53 446.517 238.001 445.092 238.001 443.607C238.001 442.121 238.53 440.697 239.472 439.646C240.413 438.596 241.69 438.006 243.022 438.006H338.013C339.344 438.006 340.621 438.596 341.563 439.646C342.504 440.697 343.033 442.121 343.033 443.607C343.033 445.092 342.504 446.517 341.563 447.568C340.621 448.618 339.344 449.208 338.013 449.208Z" fill="#248C45"/>
</g>
<defs>
<clipPath id="clip0_77_3">
<rect width="562" height="611" fill="white"/>
</clipPath>
</defs>
</svg>
